<?xml version="1.0" encoding="utf-8"?>
<svg version="1.1" xmlns:xlink="http://www.w3.org/1999/xlink" width="83px" height="50px" xmlns="http://www.w3.org/2000/svg">
  <g transform="matrix(1 0 0 1 -480 -213 )">
    <path d="M 480 213  L 563 213  L 563 263  L 480 263  L 480 213  " fill-rule="nonzero" fill="#cccccc" stroke="none" />
    <path d="M 484 217  L 559 217  L 559 259  L 484 259  L 484 217  " fill-rule="nonzero" fill="#ffffff" stroke="none" />
    <path d="M 526.91 228  C 524.81 228  523.16 226.35  523.16 224.25  C 523.16 222.15  524.81 220.5  526.91 220.5  C 529.01 220.5  530.66 222.15  530.66 224.25  C 530.66 226.35  529.01 228  526.91 228  " fill-rule="nonzero" fill="#cccccc" stroke="none" />
    <path d="M 486 258  L 486 236.55  L 504 226.8  L 529.2 243.903614457831  L 543.6 232.65  L 558 243.903614457831  L 558 258  L 486 258  " fill-rule="nonzero" fill="#169bd5" stroke="none" />
  </g>
</svg>