<?xml version="1.0" encoding="utf-8"?>
<svg version="1.1" xmlns:xlink="http://www.w3.org/1999/xlink" width="192px" height="192px" xmlns="http://www.w3.org/2000/svg">
  <g transform="matrix(1 0 0 1 -119 -178 )">
    <path d="M 119 178  L 311 178  L 311 370  L 119 370  L 119 178  " fill-rule="nonzero" fill="#cccccc" stroke="none" />
    <path d="M 132 191  L 298 191  L 298 357  L 132 357  L 132 191  " fill-rule="nonzero" fill="#ffffff" stroke="none" />
    <path d="M 233.24 235.6  C 225.176 235.6  218.84 229.264  218.84 221.2  C 218.84 213.136  225.176 206.8  233.24 206.8  C 241.304 206.8  247.64 213.136  247.64 221.2  C 247.64 229.264  241.304 235.6  233.24 235.6  " fill-rule="nonzero" fill="#cccccc" stroke="none" />
    <path d="M 137 352  L 137 266.2  L 176 227.2  L 230.6 258.4  L 261.8 250.6  L 293 258.4  L 293 352  L 137 352  " fill-rule="nonzero" fill="#169bd5" stroke="none" />
  </g>
</svg>