<?xml version="1.0" encoding="utf-8"?>
<svg version="1.1" xmlns:xlink="http://www.w3.org/1999/xlink" width="28px" height="24px" xmlns="http://www.w3.org/2000/svg">
  <g transform="matrix(1 0 0 1 -468 -164 )">
    <path d="M 11.0322916666667 10.9110576923077  C 11.8538194444444 10.0985576923077  12.8430555555556 9.69230769230769  14 9.69230769230769  C 15.1569444444444 9.69230769230769  16.1461805555556 10.0985576923077  16.9677083333333 10.9110576923077  C 17.7892361111111 11.7235576923077  18.2 12.7019230769231  18.2 13.8461538461538  C 18.2 14.9903846153846  17.7892361111111 15.96875  16.9677083333333 16.78125  C 16.1461805555556 17.59375  15.1569444444444 18  14 18  C 12.8430555555556 18  11.8538194444444 17.59375  11.0322916666667 16.78125  C 10.2107638888889 15.96875  9.8 14.9903846153846  9.8 13.8461538461538  C 9.8 12.7019230769231  10.2107638888889 11.7235576923077  11.0322916666667 10.9110576923077  Z M 21 3.69230769230769  L 24.2666666666667 3.69230769230769  C 25.2972222222222 3.69230769230769  26.1770833333333 4.05288461538462  26.90625 4.77403846153846  C 27.6354166666667 5.49519230769231  28 6.36538461538461  28 7.38461538461539  L 28 20.3076923076923  C 28 21.3269230769231  27.6354166666667 22.1971153846154  26.90625 22.9182692307692  C 26.1770833333333 23.6394230769231  25.2972222222222 24  24.2666666666667 24  L 3.73333333333333 24  C 2.70277777777778 24  1.82291666666667 23.6394230769231  1.09375 22.9182692307692  C 0.364583333333333 22.1971153846154  0 21.3269230769231  0 20.3076923076923  L 0 7.38461538461539  C 0 6.36538461538461  0.364583333333333 5.49519230769231  1.09375 4.77403846153846  C 1.82291666666667 4.05288461538462  2.70277777777778 3.69230769230769  3.73333333333333 3.69230769230769  L 7 3.69230769230769  L 7.74375 1.73076923076923  C 7.92847222222222 1.25961538461538  8.26631944444445 0.853365384615383  8.75729166666667 0.51201923076923  C 9.24826388888889 0.170673076923079  9.75138888888889 0  10.2666666666667 0  L 17.7333333333333 0  C 18.2486111111111 0  18.7517361111111 0.170673076923079  19.2427083333333 0.51201923076923  C 19.7336805555556 0.853365384615383  20.0715277777778 1.25961538461538  20.25625 1.73076923076923  L 21 3.69230769230769  Z M 9.384375 18.4110576923077  C 10.6628472222222 19.6754807692308  12.2013888888889 20.3076923076923  14 20.3076923076923  C 15.7986111111111 20.3076923076923  17.3371527777778 19.6754807692308  18.615625 18.4110576923077  C 19.8940972222222 17.1466346153846  20.5333333333333 15.625  20.5333333333333 13.8461538461538  C 20.5333333333333 12.0673076923077  19.8940972222222 10.5456730769231  18.615625 9.28125  C 17.3371527777778 8.01682692307692  15.7986111111111 7.38461538461539  14 7.38461538461539  C 12.2013888888889 7.38461538461539  10.6628472222222 8.01682692307692  9.384375 9.28125  C 8.10590277777778 10.5456730769231  7.46666666666667 12.0673076923077  7.46666666666667 13.8461538461538  C 7.46666666666667 15.625  8.10590277777778 17.1466346153846  9.384375 18.4110576923077  Z " fill-rule="nonzero" fill="#a2a2a2" stroke="none" transform="matrix(1 0 0 1 468 164 )" />
  </g>
</svg>