<?xml version="1.0" encoding="utf-8"?>
<svg version="1.1" xmlns:xlink="http://www.w3.org/1999/xlink" width="20px" height="17px" xmlns="http://www.w3.org/2000/svg">
  <g transform="matrix(1 0 0 1 -1418 -62 )">
    <path d="M 10.9470468431772 15.4601290322581  C 10.4514596062457 16.033376344086  10.1357773251867 16.32  10 16.32  C 9.86422267481333 16.32  9.54854039375425 16.033376344086  9.05295315682281 15.4601290322581  C 8.55736591989137 14.8868817204301  8.30957230142565 14.5222652329749  8.30957230142565 14.3662795698925  C 8.30957230142565 14.1167025089606  8.52172437202989 13.9061218637993  8.94602851323828 13.7345376344086  C 9.37033265444671 13.5629534050179  9.72165648336727 13.4771612903226  10 13.4771612903226  C 10.2783435166327 13.4771612903226  10.6296673455533 13.5629534050179  11.0539714867617 13.7345376344086  C 11.4782756279701 13.9061218637993  11.6904276985744 14.1167025089606  11.6904276985744 14.3662795698925  C 11.6904276985744 14.5222652329749  11.4426340801086 14.8868817204301  10.9470468431772 15.4601290322581  Z M 13.7016293279023 12.2721720430108  C 13.1890699253225 12.8571182795699  12.8716904276986 13.1495913978495  12.7494908350305 13.1495913978495  C 12.7359131025119 13.1495913978495  12.6001357773252 13.052100358423  12.3421588594705 12.8571182795699  C 12.0841819416157 12.6621362007169  11.7396469789545 12.4671541218638  11.3085539714868 12.2721720430108  C 10.877460964019 12.0771899641577  10.4412763068568 11.9796989247312  10 11.9796989247312  C 9.55872369314324 11.9796989247312  9.12253903598099 12.0771899641577  8.69144602851321 12.2721720430108  C 8.26035302104549 12.4671541218638  7.9175152749491 12.6621362007169  7.66293279022403 12.8571182795699  C 7.40835030549897 13.052100358423  7.27087576374743 13.1495913978495  7.25050916496946 13.1495913978495  C 7.12830957230142 13.1495913978495  6.81093007467751 12.8571182795699  6.29837067209775 12.2721720430108  C 5.78581126951798 11.6872258064516  5.52953156822809 11.324559139785  5.52953156822809 11.1841720430108  C 5.52953156822809 11.0827813620072  5.5634758995248 10.9930896057348  5.63136456211811 10.9150967741935  C 6.16089613034626 10.3145519713262  6.82620502376102 9.84269534050179  7.6272912423625 9.49952688172042  C 8.42837746096404 9.15635842293908  9.21928038017649 8.9847741935484  10 8.9847741935484  C 10.7807196198235 8.9847741935484  11.571622539036 9.15635842293908  12.3727087576375 9.49952688172042  C 13.173794976239 9.84269534050179  13.8391038696537 10.3145519713262  14.3686354378819 10.9150967741935  C 14.4365241004752 10.9930896057348  14.4704684317719 11.0827813620072  14.4704684317719 11.1841720430108  C 14.4704684317719 11.324559139785  14.214188730482 11.6872258064516  13.7016293279023 12.2721720430108  Z M 16.4663951120163 9.09006451612904  C 15.9572301425662 9.67501075268817  15.6449422946368 9.96748387096776  15.5295315682281 9.96748387096776  C 15.4548540393754 9.96748387096776  15.3767820773931 9.93628673835127  15.2953156822811 9.87389247311829  C 14.3720298710115 9.0549677419355  13.5166327223354 8.45247311827958  12.7291242362526 8.06640860215055  C 11.9416157501697 7.68034408602151  11.0319076714189 7.48731182795701  10 7.48731182795701  C 9.42294636795657 7.48731182795701  8.84419551934826 7.57310394265233  8.26374745417513 7.74468817204302  C 7.68329938900206 7.91627240143371  7.17752885268158 8.12295340501791  6.74643584521385 8.36473118279569  C 6.31534283774607 8.60650896057347  5.93007467752886 8.84828673835126  5.59063136456211 9.09006451612904  C 5.25118805159536 9.33184229390683  4.98302783435167 9.53852329749103  4.78615071283093 9.71010752688171  C 4.58927359131025 9.8816917562724  4.48404616429059 9.96748387096776  4.47046843177191 9.96748387096776  C 4.35505770536321 9.96748387096776  4.04276985743383 9.67501075268817  3.5336048879837 9.09006451612904  C 3.02443991853363 8.50511827956989  2.76985743380857 8.14245161290323  2.76985743380857 8.00206451612903  C 2.76985743380857 7.90847311827956  2.80380176510522 7.82268100358423  2.87169042769858 7.74468817204302  C 3.76782077393074 6.71518279569892  4.85403937542429 5.91575627240143  6.13034623217925 5.34640860215054  C 7.40665308893415 4.77706093189965  8.69653767820773 4.4923870967742  10 4.4923870967742  C 11.3034623217923 4.4923870967742  12.5933469110659 4.77706093189965  13.8696537678208 5.34640860215054  C 15.1459606245757 5.91575627240143  16.2321792260693 6.71518279569892  17.1283095723014 7.74468817204302  C 17.1961982348948 7.82268100358423  17.2301425661914 7.90847311827956  17.2301425661914 8.00206451612903  C 17.2301425661914 8.14245161290323  16.9755600814664 8.50511827956989  16.4663951120163 9.09006451612904  Z M 19.2311608961303 5.91965591397849  C 18.7186014935506 6.50460215053764  18.4046164290563 6.79707526881721  18.2892057026477 6.79707526881721  C 18.214528173795 6.79707526881721  18.1398506449423 6.76197849462366  18.0651731160896 6.69178494623656  C 16.8499660556687 5.46729749103943  15.5889341479973 4.54503225806452  14.2820773930754 3.92498924731183  C 12.9752206381534 3.30494623655915  11.5478615071283 2.99492473118279  10 2.99492473118279  C 8.45213849287171 2.99492473118279  7.02477936184658 3.30494623655915  5.71792260692462 3.92498924731183  C 4.41106585200271 4.54503225806452  3.15003394433131 5.46729749103943  1.93482688391038 6.69178494623656  C 1.86014935505773 6.76197849462366  1.78547182620503 6.79707526881721  1.71079429735232 6.79707526881721  C 1.59538357094362 6.79707526881721  1.28139850644942 6.50460215053764  0.768839103869652 5.91965591397849  C 0.256279701289884 5.33470967741935  0 4.97204301075269  0 4.8316559139785  C 0 4.73026523297491  0.0339443312966523 4.64057347670251  0.101832993890014 4.5625806451613  C 1.37135098438563 3.11191397849463  2.88187372708757 1.98881720430107  4.63340122199594 1.19329032258064  C 6.38492871690426 0.397763440860208  8.17379497623898 0  10 0  C 11.826205023761 0  13.6150712830957 0.397763440860208  15.3665987780041 1.19329032258064  C 17.1181262729124 1.98881720430107  18.6286490156144 3.11191397849463  19.89816700611 4.5625806451613  C 19.9660556687033 4.64057347670251  20 4.73026523297491  20 4.8316559139785  C 20 4.97204301075269  19.7437202987101 5.33470967741935  19.2311608961303 5.91965591397849  Z " fill-rule="nonzero" fill="#000000" stroke="none" transform="matrix(1 0 0 1 1418 62 )" />
  </g>
</svg>