<?xml version="1.0" encoding="utf-8"?>
<svg version="1.1" xmlns:xlink="http://www.w3.org/1999/xlink" width="20px" height="14px" xmlns="http://www.w3.org/2000/svg">
  <g transform="matrix(1 0 0 1 -1446 -63 )">
    <path d="M 2.22222222222223 2.61333333333334  L 16.6666666666667 2.61333333333334  L 16.6666666666667 10.4533333333333  L 2.22222222222223 10.4533333333333  L 2.22222222222223 2.61333333333334  Z M 17.7777777777778 11.4333333333333  L 17.7777777777778 8.49333333333334  L 18.8888888888889 8.49333333333334  L 18.8888888888889 4.57333333333332  L 17.7777777777778 4.57333333333332  L 17.7777777777778 1.63333333333334  C 17.7777777777778 1.53805555555555  17.7517361111111 1.45979166666667  17.6996527777778 1.39854166666665  C 17.6475694444445 1.33729166666668  17.5810185185185 1.30666666666667  17.5 1.30666666666667  L 1.38888888888891 1.30666666666667  C 1.30787037037038 1.30666666666667  1.24131944444446 1.33729166666668  1.18923611111109 1.39854166666665  C 1.13715277777777 1.45979166666667  1.11111111111109 1.53805555555555  1.11111111111109 1.63333333333334  L 1.11111111111109 11.4333333333333  C 1.11111111111109 11.5286111111111  1.13715277777777 11.606875  1.18923611111109 11.668125  C 1.24131944444446 11.729375  1.30787037037038 11.76  1.38888888888891 11.76  L 17.5 11.76  C 17.5810185185185 11.76  17.6475694444445 11.729375  17.6996527777778 11.668125  C 17.7517361111111 11.606875  17.7777777777778 11.5286111111111  17.7777777777778 11.4333333333333  Z M 19.6744791666667 3.64947916666665  C 19.8914930555555 3.90468749999998  20 4.21263888888887  20 4.57333333333332  L 20 8.49333333333334  C 20 8.85402777777778  19.8914930555555 9.16197916666667  19.6744791666667 9.41718749999997  C 19.4574652777778 9.67239583333331  19.1956018518518 9.79999999999997  18.8888888888889 9.79999999999997  L 18.8888888888889 11.4333333333333  C 18.8888888888889 11.8825  18.7528935185185 12.2670138888889  18.4809027777778 12.586875  C 18.2089120370371 12.9067361111111  17.8819444444445 13.0666666666667  17.5 13  L 1.38888888888891 13  C 1.00694444444446 13.0666666666667  0.679976851851848 12.9067361111111  0.407986111111086 12.586875  C 0.135995370370381 12.2670138888889  0 11.8825  0 11.4333333333333  L 0 1.63333333333334  C 0 1.18416666666665  0.135995370370381 0.79965277777778  0.407986111111086 0.479791666666661  C 0.679976851851848 0.159930555555543  1.00694444444446 0  1.38888888888891 0  L 17.5 0  C 17.8819444444445 0  18.2089120370371 0.159930555555543  18.4809027777778 0.479791666666661  C 18.7528935185185 0.79965277777778  18.8888888888889 1.18416666666665  18.8888888888889 1.63333333333334  L 18.8888888888889 3.26666666666668  C 19.1956018518518 3.26666666666665  19.4574652777778 3.39427083333331  19.6744791666667 3.64947916666665  Z " fill-rule="nonzero" fill="#000000" stroke="none" transform="matrix(1 0 0 1 1446 63 )" />
  </g>
</svg>