<?xml version="1.0" encoding="utf-8"?>
<svg version="1.1" xmlns:xlink="http://www.w3.org/1999/xlink" width="20px" height="17px" xmlns="http://www.w3.org/2000/svg">
  <g transform="matrix(1 0 0 1 -1389 -61 )">
    <path d="M 3.44587053571428 12.5149956597222  C 3.52957589285711 12.6101779513889  3.57142857142856 12.7317997685185  3.57142857142856 12.8798611111111  L 3.57142857142856 15.9256944444444  C 3.57142857142856 16.0737557870371  3.52957589285711 16.1953776041667  3.44587053571428 16.2905598958333  C 3.36216517857144 16.3857421875  3.25520833333337 16.4333333333333  3.125 16.4333333333333  L 0.446428571428555 16.4333333333333  C 0.316220238095241 16.4333333333333  0.20926339285711 16.3857421875  0.125558035714278 16.2905598958333  C 0.0418526785714448 16.1953776041667  0 16.0737557870371  0 15.9256944444444  L 0 12.8798611111111  C 0 12.7317997685185  0.0418526785714448 12.6101779513889  0.125558035714278 12.5149956597222  C 0.20926339285711 12.4198133680556  0.316220238095241 12.3722222222222  0.446428571428555 12.3722222222222  L 3.125 12.3722222222222  C 3.25520833333337 12.3722222222222  3.36216517857144 12.4198133680556  3.44587053571428 12.5149956597222  Z M 8.80301339285711 10.4844401041667  C 8.88671875 10.5796223958333  8.92857142857144 10.7012442129629  8.92857142857144 10.8493055555556  L 8.92857142857144 15.9256944444444  C 8.92857142857144 16.0737557870371  8.88671875 16.1953776041667  8.80301339285711 16.2905598958333  C 8.71930803571428 16.3857421875  8.6123511904762 16.4333333333333  8.48214285714289 16.4333333333333  L 5.80357142857144 16.4333333333333  C 5.67336309523807 16.4333333333333  5.56640625 16.3857421875  5.48270089285711 16.2905598958333  C 5.39899553571428 16.1953776041667  5.35714285714289 16.0737557870371  5.35714285714289 15.9256944444444  L 5.35714285714289 10.8493055555556  C 5.35714285714289 10.7012442129629  5.39899553571428 10.5796223958333  5.48270089285711 10.4844401041667  C 5.56640625 10.3892578125  5.67336309523807 10.3416666666667  5.80357142857144 10.3416666666667  L 8.48214285714289 10.3416666666667  C 8.6123511904762 10.3416666666667  8.71930803571428 10.3892578125  8.80301339285711 10.4844401041667  Z M 13.25 6.28055555555554  C 13.3337053571429 6.37573784722221  14.2857142857143 6.64013310185186  14.2857142857143 6.78819444444446  L 14.2857142857143 15.9256944444444  C 14.2857142857143 16.0737557870371  14.2438616071429 16.1953776041667  14.16015625 16.2905598958333  C 14.0764508928571 16.3857421875  13.969494047619 16.4333333333333  13.8392857142857 16.4333333333333  L 11.1607142857143 16.4333333333333  C 11.030505952381 16.4333333333333  10.9235491071429 16.3857421875  10.83984375 16.2905598958333  C 10.7561383928571 16.1953776041667  10.7142857142857 16.0737557870371  10.7142857142857 15.9256944444444  L 10.7142857142857 6.78819444444446  C 10.7142857142857 6.64013310185186  10.7561383928571 6.51851128472221  10.83984375 6.42332899305555  C 10.9235491071429 6.32814670138888  11.030505952381 6.28055555555554  11.1607142857143 6.28055555555554  L 13.8392857142857 6.28055555555554  C 13.969494047619 6.28055555555554  13.1662946428571 6.18537326388888  13.25 6.28055555555554  Z M 19.5172991071429 0.331662326388894  C 19.6010044642857 0.426844618055561  19.6428571428571 0.548466435185192  19.6428571428571 0.696527777777772  L 19.6428571428571 15.9256944444444  C 19.6428571428571 16.0737557870371  19.6010044642857 16.1953776041667  19.5172991071429 16.2905598958333  C 19.43359375 16.3857421875  19.3266369047619 16.4333333333333  19.1964285714286 16.4333333333333  L 16.5178571428571 16.4333333333333  C 16.3876488095238 16.4333333333333  16.2806919642857 16.3857421875  16.1969866071429 16.2905598958333  C 16.11328125 16.1953776041667  16.0714285714286 16.0737557870371  16 15.9256944444444  L 16 0.696527777777772  C 16.0714285714286 0.548466435185192  16.11328125 0.426844618055561  16.1969866071429 0.331662326388894  C 16.2806919642857 0.236480034722228  16.3876488095238 0.188888888888894  16.5178571428571 0.188888888888894  L 19.1964285714286 0.188888888888894  C 19.3266369047619 0.188888888888894  19.43359375 0.236480034722228  19.5172991071429 0.331662326388894  Z " fill-rule="nonzero" fill="#000000" stroke="none" transform="matrix(1 0 0 1 1389 61 )" />
  </g>
</svg>