<?xml version="1.0" encoding="utf-8"?>
<svg version="1.1" xmlns:xlink="http://www.w3.org/1999/xlink" width="60px" height="60px" xmlns="http://www.w3.org/2000/svg">
  <g transform="matrix(1 0 0 1 -1272 -691 )">
    <path d="M 1302 691  C 1318.8 691  1332 704.2  1332 721  C 1332 737.8  1318.8 751  1302 751  C 1285.2 751  1272 737.8  1272 721  C 1272 704.2  1285.2 691  1302 691  Z " fill-rule="nonzero" fill="#ffffff" stroke="none" />
    <path d="M 1302 691.5  C 1318.52 691.5  1331.5 704.48  1331.5 721  C 1331.5 737.52  1318.52 750.5  1302 750.5  C 1285.48 750.5  1272.5 737.52  1272.5 721  C 1272.5 704.48  1285.48 691.5  1302 691.5  Z " stroke-width="1" stroke="#797979" fill="none" />
  </g>
</svg>