<?xml version="1.0" encoding="utf-8"?>
<svg version="1.1" xmlns:xlink="http://www.w3.org/1999/xlink" width="49px" height="49px" xmlns="http://www.w3.org/2000/svg">
  <g transform="matrix(1 0 0 1 -1275 -618 )">
    <path d="M 1299.5 618  C 1313.22 618  1324 628.78  1324 642.5  C 1324 656.22  1313.22 667  1299.5 667  C 1285.78 667  1275 656.22  1275 642.5  C 1275 628.78  1285.78 618  1299.5 618  Z " fill-rule="nonzero" fill="#ffffff" stroke="none" />
    <path d="M 1299.5 618.5  C 1312.94 618.5  1323.5 629.06  1323.5 642.5  C 1323.5 655.94  1312.94 666.5  1299.5 666.5  C 1286.06 666.5  1275.5 655.94  1275.5 642.5  C 1275.5 629.06  1286.06 618.5  1299.5 618.5  Z " stroke-width="1" stroke="#797979" fill="none" />
  </g>
</svg>