<?xml version="1.0" encoding="utf-8"?>
<svg version="1.1" xmlns:xlink="http://www.w3.org/1999/xlink" width="20px" height="18px" xmlns="http://www.w3.org/2000/svg">
  <g transform="matrix(1 0 0 1 -870 -777 )">
    <path d="M 19.5286195286195 13.4545454545455  C 19.8428731762065 13.7373737373737  20 14.0808080808081  20 14.4848484848485  C 20 14.8888888888889  19.8428731762065 15.2323232323232  19.5286195286195 15.5151515151515  L 17.2390572390572 17.5757575757576  C 16.9248035914703 17.8585858585859  16.5432098765432 18  16.0942760942761 18  C 15.645342312009 18  15.2637485970819 17.8585858585859  14.9494949494949 17.5757575757576  L 10 13.1212121212121  L 5.05050505050505 17.5757575757576  C 4.73625140291807 17.8585858585859  4.35465768799102 18  3.90572390572391 18  C 3.45679012345679 18  3.07519640852974 17.8585858585859  2.76094276094276 17.5757575757576  L 0.471380471380471 15.5151515151515  C 0.157126823793491 15.2323232323232  0 14.8888888888889  0 14.4848484848485  C 0 14.0808080808081  0.157126823793491 13.7373737373737  0.471380471380471 13.4545454545455  L 5.42087542087542 9  L 0.471380471380471 4.54545454545455  C 0.157126823793491 4.26262626262626  0 3.91919191919192  0 3.51515151515152  C 0 3.11111111111111  0.157126823793491 2.76767676767677  0.471380471380471 2.48484848484849  L 2.76094276094276 0.424242424242424  C 3.07519640852974 0.141414141414141  3.45679012345679 0  3.90572390572391 0  C 4.35465768799102 0  4.73625140291807 0.141414141414141  5.05050505050505 0.424242424242424  L 10 4.87878787878788  L 14.9494949494949 0.424242424242424  C 15.2637485970819 0.141414141414141  15.645342312009 0  16.0942760942761 0  C 16.5432098765432 0  16.9248035914703 0.141414141414141  17.2390572390572 0.424242424242424  L 19.5286195286195 2.48484848484849  C 19.8428731762065 2.76767676767677  20 3.11111111111111  20 3.51515151515152  C 20 3.91919191919192  19.8428731762065 4.26262626262626  19.5286195286195 4.54545454545455  L 14.5791245791246 9  L 19.5286195286195 13.4545454545455  Z " fill-rule="nonzero" fill="#000000" stroke="none" transform="matrix(1 0 0 1 870 777 )" />
  </g>
</svg>