<?xml version="1.0" encoding="utf-8"?>
<svg version="1.1" xmlns:xlink="http://www.w3.org/1999/xlink" width="13px" height="16px" xmlns="http://www.w3.org/2000/svg">
  <g transform="matrix(1 0 0 1 -1059 -716 )">
    <path d="M 12.9173027989822 9.71428571428572  C 12.8456318914334 9.85119047619047  12.7298558100085 9.9375  12.5699745547074 9.97321428571428  L 11.1889312977099 10.2678571428571  L 12.7270992366412 11.2232142857143  C 12.8539016115352 11.3005952380952  12.9352205258694 11.4151785714286  12.9710559796438 11.5669642857143  C 13.0068914334182 11.71875  12.988973706531 11.8630952380952  12.9173027989822 12  C 12.8401187446989 12.1369047619048  12.7326123833757 12.2247023809524  12.5947837150127 12.2633928571429  C 12.4569550466497 12.3020833333333  12.3246395250212 12.2827380952381  12.1978371501272 12.2053571428571  L 10.6596692111959 11.2589285714286  L 11.1145038167939 12.6875  C 11.1861747243427 12.9136904761905  11.1530958439355 13.1026785714286  11.0152671755725 13.2544642857143  C 10.8774385072095 13.40625  10.7106658184902 13.4672619047619  10.5149491094148 13.4375  C 10.3192324003393 13.4077380952381  10.1855385920271 13.2827380952381  10.1138676844784 13.0625  L 9.27035623409669 10.3839285714286  L 7.029262086514 8.99107142857143  L 7.029262086514 11.7857142857143  L 8.74936386768448 13.9107142857143  C 8.83757421543681 14.0178571428571  8.88443596268024 14.1339285714286  8.88994910941476 14.2589285714286  C 8.89546225614928 14.3839285714286  8.86513994910941 14.4925595238095  8.79898218829517 14.5848214285714  C 8.73282442748092 14.6770833333333  8.654262086514 14.7514880952381  8.5632951653944 14.8080357142857  C 8.47232824427481 14.8645833333333  8.37033502968617 14.8809523809524  8.2573155216285 14.8571428571429  C 8.14429601357082 14.8333333333333  8.04368108566582 14.7678571428571  7.95547073791349 14.6607142857143  L 7.029262086514 13.5178571428571  L 7.029262086514 15.4285714285714  C 7.029262086514 15.5833333333333  6.97688719253605 15.7172619047619  6.87213740458015 15.8303571428571  C 6.76738761662426 15.9434523809524  6.64334181509754 16  6.5 16  C 6.35665818490246 16  6.23261238337574 15.9434523809524  6.12786259541985 15.8303571428571  C 6.02311280746395 15.7172619047619  5.97073791348601 15.5833333333333  5.97073791348601 15.4285714285714  L 5.97073791348601 13.5178571428571  L 5.04452926208651 14.6607142857143  C 4.95631891433418 14.7678571428571  4.85570398642918 14.8333333333333  4.7426844783715 14.8571428571429  C 4.62966497031383 14.8809523809524  4.52767175572519 14.8645833333333  4.4367048346056 14.8080357142857  C 4.34573791348601 14.7514880952381  4.26717557251908 14.6770833333333  4.20101781170483 14.5848214285714  C 4.13486005089059 14.4925595238095  4.10453774385072 14.3839285714286  4.11005089058524 14.2589285714286  C 4.11556403731976 14.1339285714286  4.16242578456319 14.0178571428571  4.25063613231552 13.9107142857143  L 5.97073791348601 11.7857142857143  L 5.97073791348601 8.99107142857143  L 3.72964376590331 10.3839285714286  L 2.88613231552163 13.0625  C 2.81446140797286 13.2827380952381  2.68076759966073 13.4077380952381  2.48505089058524 13.4375  C 2.28933418150975 13.4672619047619  2.1225614927905 13.40625  1.98473282442748 13.2544642857143  C 1.84690415606446 13.1026785714286  1.81382527565734 12.9136904761905  1.88549618320611 12.6875  L 2.34033078880407 11.2589285714286  L 0.802162849872774 12.2053571428571  C 0.675360474978796 12.2827380952381  0.543044953350297 12.3020833333333  0.405216284987277 12.2633928571429  C 0.267387616624258 12.2247023809524  0.159881255301103 12.1369047619048  0.0826972010178117 12  C 0.0110262934690416 11.8630952380952  -0.00689143341815094 11.71875  0.0289440203562341 11.5669642857143  C 0.0647794741306192 11.4151785714286  0.146098388464801 11.3005952380952  0.272900763358779 11.2232142857143  L 1.81106870229008 10.2678571428571  L 0.430025445292621 9.97321428571428  C 0.270144189991518 9.9375  0.154368108566582 9.85119047619047  0.0826972010178117 9.71428571428572  C 0.0110262934690416 9.57738095238095  -0.0124045801526718 9.43898809523809  0.0124045801526718 9.29910714285714  C 0.0372137404580153 9.15922619047619  0.107506361323155 9.04017857142857  0.223282442748092 8.94196428571428  C 0.339058524173028 8.84375  0.476887192536048 8.8125  0.63676844783715 8.84821428571428  L 3.20038167938931 9.40178571428572  L 5.44147582697201 8  L 3.20038167938931 6.59821428571429  L 0.63676844783715 7.15178571428571  C 0.614715860899067 7.15773809523809  0.578880407124682 7.16071428571429  0.529262086513995 7.16071428571429  C 0.380407124681934 7.16071428571429  0.259117896522477 7.10714285714286  0.165394402035623 7  C 0.0716709075487702 6.89285714285714  0.0192960135708228 6.77380952380952  0.00826972010178117 6.64285714285714  C -0.00275657336726035 6.51190476190476  0.0275657336726039 6.38392857142857  0.099236641221374 6.25892857142857  C 0.170907548770144 6.13392857142857  0.28117048346056 6.05654761904762  0.430025445292621 6.02678571428571  L 1.81106870229008 5.73214285714286  L 0.272900763358779 4.77678571428571  C 0.146098388464801 4.69940476190476  0.0647794741306192 4.58482142857143  0.0289440203562341 4.43303571428571  C -0.00689143341815094 4.28125  0.0110262934690416 4.13690476190476  0.0826972010178117 4  C 0.154368108566582 3.86309523809524  0.261874469889737 3.77380952380952  0.405216284987277 3.73214285714286  C 0.548558100084818 3.69047619047619  0.680873621713316 3.71130952380952  0.802162849872774 3.79464285714286  L 2.34033078880407 4.74107142857143  L 1.88549618320611 3.3125  C 1.81382527565734 3.08630952380952  1.84690415606446 2.89732142857143  1.98473282442748 2.74553571428571  C 2.1225614927905 2.59375  2.28933418150975 2.53273809523809  2.48505089058524 2.5625  C 2.68076759966073 2.5922619047619  2.81446140797286 2.7172619047619  2.88613231552163 2.9375  L 3.72964376590331 5.61607142857143  L 5.97073791348601 7.00892857142857  L 5.97073791348601 4.21428571428571  L 4.25063613231552 2.08928571428571  C 4.16242578456319 1.98214285714286  4.11556403731976 1.86607142857143  4.11005089058524 1.74107142857143  C 4.10453774385072 1.61607142857143  4.13486005089059 1.50744047619048  4.20101781170483 1.41517857142857  C 4.26717557251908 1.32291666666667  4.34573791348601 1.2485119047619  4.4367048346056 1.19196428571429  C 4.52767175572519 1.13541666666667  4.62966497031383 1.11904761904762  4.7426844783715 1.14285714285714  C 4.85570398642918 1.16666666666667  4.95631891433418 1.23214285714286  5.04452926208651 1.33928571428571  L 5.97073791348601 2.48214285714286  L 5.97073791348601 0.571428571428571  C 5.97073791348601 0.416666666666666  6.02311280746395 0.282738095238093  6.12786259541985 0.169642857142858  C 6.23261238337574 0.0565476190476204  6.35665818490246 0  6.5 0  C 6.64334181509754 0  6.76738761662426 0.0565476190476204  6.87213740458015 0.169642857142858  C 6.97688719253605 0.282738095238093  7.029262086514 0.416666666666666  7.029262086514 0.571428571428571  L 7.029262086514 2.48214285714286  L 7.95547073791349 1.33928571428571  C 8.04368108566582 1.23214285714286  8.14429601357082 1.16666666666667  8.2573155216285 1.14285714285714  C 8.37033502968617 1.11904761904762  8.47232824427481 1.13541666666667  8.5632951653944 1.19196428571429  C 8.654262086514 1.2485119047619  8.73282442748092 1.32291666666667  8.79898218829517 1.41517857142857  C 8.86513994910941 1.50744047619048  8.89546225614928 1.61607142857143  8.88994910941476 1.74107142857143  C 8.88443596268024 1.86607142857143  8.83757421543681 1.98214285714286  8.74936386768448 2.08928571428571  L 7.029262086514 4.21428571428571  L 7.029262086514 7.00892857142857  L 9.27035623409669 5.61607142857143  L 10.1138676844784 2.9375  C 10.1855385920271 2.7172619047619  10.3192324003393 2.5922619047619  10.5149491094148 2.5625  C 10.7106658184902 2.53273809523809  10.8774385072095 2.59375  11.0152671755725 2.74553571428571  C 11.1530958439355 2.89732142857143  11.1861747243427 3.08630952380952  11.1145038167939 3.3125  L 10.6596692111959 4.74107142857143  L 12.1978371501272 3.79464285714286  C 12.3246395250212 3.7172619047619  12.4569550466497 3.69791666666667  12.5947837150127 3.73660714285714  C 12.7326123833757 3.77529761904762  12.8401187446989 3.86309523809524  12.9173027989822 4  C 12.988973706531 4.13690476190476  13.0068914334182 4.28125  12.9710559796438 4.43303571428571  C 12.9352205258694 4.58482142857143  12.8539016115352 4.69940476190476  12.7270992366412 4.77678571428571  L 11.1889312977099 5.73214285714286  L 12.5699745547074 6.02678571428571  C 12.7188295165394 6.05654761904762  12.8290924512299 6.13392857142857  12.9007633587786 6.25892857142857  C 12.9724342663274 6.38392857142857  13.0027565733673 6.51190476190476  12.9917302798982 6.64285714285714  C 12.9807039864292 6.77380952380952  12.9283290924512 6.89285714285714  12.8346055979644 7  C 12.7408821034775 7.10714285714286  12.6195928753181 7.16071428571429  12.470737913486 7.16071428571429  C 12.4211195928753 7.16071428571429  12.3852841391009 7.15773809523809  12.3632315521628 7.15178571428571  L 9.79961832061069 6.59821428571429  L 7.55852417302799 8  L 9.79961832061069 9.40178571428572  L 12.3632315521628 8.84821428571428  C 12.523112807464 8.8125  12.660941475827 8.84375  12.7767175572519 8.94196428571428  C 12.8924936386768 9.04017857142857  12.962786259542 9.15922619047619  12.9875954198473 9.29910714285714  C 13.0124045801527 9.43898809523809  12.988973706531 9.57738095238095  12.9173027989822 9.71428571428572  Z " fill-rule="nonzero" fill="#a31dfd" stroke="none" transform="matrix(1 0 0 1 1059 716 )" />
  </g>
</svg>