<?xml version="1.0" encoding="utf-8"?>
<svg version="1.1" xmlns:xlink="http://www.w3.org/1999/xlink" width="110px" height="70px" xmlns="http://www.w3.org/2000/svg">
  <g transform="matrix(1 0 0 1 -593 -132 )">
    <path d="M 603.5 201.5  L 702.5 201.5  L 702.5 142.5  L 697.5 142.5  L 697.5 137.5  L 692.5 137.5  L 692.5 132.5  L 593.5 132.5  L 593.5 191.5  L 598.5 191.5  L 598.5 196.5  L 603.5 196.5  L 603.5 201.5  Z " fill-rule="nonzero" fill="#ffffff" stroke="none" />
    <path d="M 603.5 201.5  L 702.5 201.5  L 702.5 142.5  L 697.5 142.5  L 697.5 137.5  L 692.5 137.5  L 692.5 132.5  L 593.5 132.5  L 593.5 191.5  L 598.5 191.5  L 598.5 196.5  L 603.5 196.5  L 603.5 201.5  Z " stroke-width="1" stroke="#797979" fill="none" />
    <path d="M 697.5 143  L 697.5 196.5  L 604 196.5  M 692.5 138  L 692.5 191.5  L 599 191.5  " stroke-width="1" stroke="#797979" fill="none" />
  </g>
</svg>