<?xml version="1.0" encoding="utf-8"?>
<svg version="1.1" xmlns:xlink="http://www.w3.org/1999/xlink" width="86px" height="82px" xmlns="http://www.w3.org/2000/svg">
  <g transform="matrix(1 0 0 1 -424 -1212 )">
    <path d="M 424 1212  L 510 1212  L 510 1294  L 424 1294  L 424 1212  " fill-rule="nonzero" fill="#cccccc" stroke="none" />
    <path d="M 430 1218  L 504 1218  L 504 1288  L 430 1288  L 430 1218  " fill-rule="nonzero" fill="#ffffff" stroke="none" />
    <path d="M 474.87 1236.6  C 471.426 1236.6  468.72 1233.894  468.72 1230.45  C 468.72 1227.006  471.426 1224.3  474.87 1224.3  C 478.314 1224.3  481.02 1227.006  481.02 1230.45  C 481.02 1233.894  478.314 1236.6  474.87 1236.6  " fill-rule="nonzero" fill="#cccccc" stroke="none" />
    <path d="M 432 1286  L 432 1249.7  L 449.5 1233.2  L 474 1248.24186046512  L 488 1243.1  L 502 1248.24186046512  L 502 1286  L 432 1286  " fill-rule="nonzero" fill="#169bd5" stroke="none" />
  </g>
</svg>