<?xml version="1.0" encoding="utf-8"?>
<svg version="1.1" xmlns:xlink="http://www.w3.org/1999/xlink" width="50px" height="40px" xmlns="http://www.w3.org/2000/svg">
  <defs>
    <mask fill="white" id="clip44">
      <path d="M 26 30  C 16 30  10 21  0 15  C 10 9  16 0  26 0  C 31.2 0  40 3  40 15  C 40 27  31.2 30  26 30  Z " fill-rule="evenodd" />
    </mask>
    <filter x="197px" y="181px" width="50px" height="40px" filterUnits="userSpaceOnUse" id="filter45">
      <feOffset dx="1" dy="1" in="SourceAlpha" result="shadowOffsetInner" />
      <feGaussianBlur stdDeviation="2.5" in="shadowOffsetInner" result="shadowGaussian" />
      <feComposite in2="shadowGaussian" operator="atop" in="SourceAlpha" result="shadowComposite" />
      <feColorMatrix type="matrix" values="0 0 0 0 0  0 0 0 0 0  0 0 0 0 0  0 0 0 0.698039215686274 0  " in="shadowComposite" />
    </filter>
    <g id="widget46">
      <path d="M 26 30  C 16 30  10 21  0 15  C 10 9  16 0  26 0  C 31.2 0  40 3  40 15  C 40 27  31.2 30  26 30  Z " fill-rule="nonzero" fill="#009dd9" stroke="none" transform="matrix(1 0 0 1 201 185 )" />
      <path d="M 26 30  C 16 30  10 21  0 15  C 10 9  16 0  26 0  C 31.2 0  40 3  40 15  C 40 27  31.2 30  26 30  Z " stroke-width="2" stroke="#ffffff" fill="none" transform="matrix(1 0 0 1 201 185 )" mask="url(#clip44)" />
    </g>
  </defs>
  <g transform="matrix(1 0 0 1 -197 -181 )">
    <use xlink:href="#widget46" filter="url(#filter45)" />
    <use xlink:href="#widget46" />
  </g>
</svg>