<?xml version="1.0" encoding="utf-8"?>
<svg version="1.1" xmlns:xlink="http://www.w3.org/1999/xlink" width="40px" height="40px" xmlns="http://www.w3.org/2000/svg">
  <defs>
    <filter x="873px" y="164px" width="40px" height="40px" filterUnits="userSpaceOnUse" id="filter49">
      <feOffset dx="1" dy="1" in="SourceAlpha" result="shadowOffsetInner" />
      <feGaussianBlur stdDeviation="2.5" in="shadowOffsetInner" result="shadowGaussian" />
      <feComposite in2="shadowGaussian" operator="atop" in="SourceAlpha" result="shadowComposite" />
      <feColorMatrix type="matrix" values="0 0 0 0 0  0 0 0 0 0  0 0 0 0 0  0 0 0 0.698039215686274 0  " in="shadowComposite" />
    </filter>
    <g id="widget50">
      <path d="M 892 168  C 900.4 168  907 174.6  907 183  C 907 191.4  900.4 198  892 198  C 883.6 198  877 191.4  877 183  C 877 174.6  883.6 168  892 168  Z " fill-rule="nonzero" fill="#ef5aa1" stroke="none" />
      <path d="M 892 168.5  C 900.12 168.5  906.5 174.88  906.5 183  C 906.5 191.12  900.12 197.5  892 197.5  C 883.88 197.5  877.5 191.12  877.5 183  C 877.5 174.88  883.88 168.5  892 168.5  Z " stroke-width="1" stroke="#ffffff" fill="none" />
    </g>
  </defs>
  <g transform="matrix(1 0 0 1 -873 -164 )">
    <use xlink:href="#widget50" filter="url(#filter49)" />
    <use xlink:href="#widget50" />
  </g>
</svg>