<?xml version="1.0" encoding="utf-8"?>
<svg version="1.1" xmlns:xlink="http://www.w3.org/1999/xlink" width="40px" height="50px" xmlns="http://www.w3.org/2000/svg">
  <defs>
    <filter x="870px" y="431px" width="40px" height="50px" filterUnits="userSpaceOnUse" id="filter51">
      <feOffset dx="1" dy="1" in="SourceAlpha" result="shadowOffsetInner" />
      <feGaussianBlur stdDeviation="2.5" in="shadowOffsetInner" result="shadowGaussian" />
      <feComposite in2="shadowGaussian" operator="atop" in="SourceAlpha" result="shadowComposite" />
      <feColorMatrix type="matrix" values="0 0 0 0 0  0 0 0 0 0  0 0 0 0 0  0 0 0 0.698039215686274 0  " in="shadowComposite" />
    </filter>
    <g id="widget52">
      <path d="M 889 474.036928468354  C 883.2 464.40734059591  874.5 458.629587872444  874.5 449  C 874.5 443.985714285714  877.4 435.5  889 435.5  C 900.6 435.5  903.5 443.985714285714  903.5 449  C 903.5 458.629587872444  894.8 464.40734059591  889 474.036928468354  Z " fill-rule="nonzero" fill="#d0e17d" stroke="none" />
      <path d="M 889 475  C 883 465  874 459  874 449  C 874 443.8  877 435  889 435  C 901 435  904 443.8  904 449  C 904 459  895 465  889 475  Z M 889 473.073856936707  C 894.6 463.81468119182  903 458.259175744887  903 449  C 903 444.171428571429  900.2 436  889 436  C 877.8 436  875 444.171428571429  875 449  C 875 458.259175744887  883.4 463.81468119182  889 473.073856936707  Z " fill-rule="nonzero" fill="#ffffff" stroke="none" />
    </g>
  </defs>
  <g transform="matrix(1 0 0 1 -870 -431 )">
    <use xlink:href="#widget52" filter="url(#filter51)" />
    <use xlink:href="#widget52" />
  </g>
</svg>