<?xml version="1.0" encoding="utf-8"?>
<svg version="1.1" xmlns:xlink="http://www.w3.org/1999/xlink" width="311px" height="176px" xmlns="http://www.w3.org/2000/svg">
  <g transform="matrix(1 0 0 1 -413 -970 )">
    <path d="M 413 970  L 724 970  L 724 1146  L 413 1146  L 413 970  " fill-rule="nonzero" fill="#cccccc" stroke="none" />
    <path d="M 425 982  L 712 982  L 712 1134  L 425 1134  L 425 982  " fill-rule="nonzero" fill="#ffffff" stroke="none" />
    <path d="M 587.92 1022.8  C 580.528 1022.8  574.72 1016.992  574.72 1009.6  C 574.72 1002.208  580.528 996.4  587.92 996.4  C 595.312 996.4  601.12 1002.208  601.12 1009.6  C 601.12 1016.992  595.312 1022.8  587.92 1022.8  " fill-rule="nonzero" fill="#cccccc" stroke="none" />
    <path d="M 430 1130  L 430 1051.35  L 499.5 1015.6  L 596.8 1081.44437299035  L 652.4 1037.05  L 708 1081.44437299035  L 708 1130  L 430 1130  " fill-rule="nonzero" fill="#169bd5" stroke="none" />
  </g>
</svg>