<?xml version="1.0" encoding="utf-8"?>
<svg version="1.1" xmlns:xlink="http://www.w3.org/1999/xlink" width="17px" height="20px" xmlns="http://www.w3.org/2000/svg">
  <defs>
    <linearGradient gradientUnits="userSpaceOnUse" x1="8.5" y1="20" x2="8.5" y2="0.2" id="LinearGradient41">
      <stop id="Stop42" stop-color="#797979" offset="0" />
      <stop id="Stop43" stop-color="#ababab" offset="1" />
    </linearGradient>
  </defs>
  <g transform="matrix(1 0 0 1 -430 -931 )">
    <path d="M 16.7079037800687 1.20240480961924  C 16.9026345933562 1.33600534402137  17 1.48964595858383  17 1.66332665330661  C 17 1.83700734802939  16.9026345933562 1.99064796259185  16.7079037800687 2.12424849699399  L 5.22852233676976 10  L 16.7079037800687 17.875751503006  C 16.9026345933562 18.0093520374081  17 18.1629926519706  17 18.3366733466934  C 17 18.5103540414162  16.9026345933562 18.6639946559786  16.7079037800687 18.7975951903808  L 15.2474226804124 19.7995991983968  C 15.0526918671249 19.9331997327989  14.8287514318442 20  14.5756013745704 20  C 14.3224513172967 20  14.098510882016 19.9331997327989  13.9037800687285 19.7995991983968  L 0.292096219931271 10.4609218436874  C 0.0973654066437572 10.3273213092852  0 10.1736806947228  0 10  C 0 9.82631930527722  0.0973654066437572 9.67267869071476  0.292096219931271 9.53907815631263  L 13.9037800687285 0.200400801603207  C 14.098510882016 0.0668002672010681  14.3224513172967 0  14.5756013745704 0  C 14.8287514318442 0  15.0526918671249 0.0668002672010681  15.2474226804124 0.200400801603207  L 16.7079037800687 1.20240480961924  Z " fill-rule="nonzero" fill="url(#LinearGradient41)" stroke="none" transform="matrix(1 0 0 1 430 931 )" />
  </g>
</svg>