<?xml version="1.0" encoding="utf-8"?>
<svg version="1.1" xmlns:xlink="http://www.w3.org/1999/xlink" width="311px" height="170px" xmlns="http://www.w3.org/2000/svg">
  <g transform="matrix(1 0 0 1 -413 -976 )">
    <path d="M 413 976  L 724 976  L 724 1146  L 413 1146  L 413 976  " fill-rule="nonzero" fill="#cccccc" stroke="none" />
    <path d="M 425 988  L 712 988  L 712 1134  L 425 1134  L 425 988  " fill-rule="nonzero" fill="#ffffff" stroke="none" />
    <path d="M 587.47 1027  C 580.33 1027  574.72 1021.39  574.72 1014.25  C 574.72 1007.11  580.33 1001.5  587.47 1001.5  C 594.61 1001.5  600.22 1007.11  600.22 1014.25  C 600.22 1021.39  594.61 1027  587.47 1027  " fill-rule="nonzero" fill="#cccccc" stroke="none" />
    <path d="M 430 1130  L 430 1054.65  L 499.5 1020.4  L 596.8 1085.06752411576  L 652.4 1040.95  L 708 1085.06752411576  L 708 1130  L 430 1130  " fill-rule="nonzero" fill="#169bd5" stroke="none" />
  </g>
</svg>