<?xml version="1.0" encoding="utf-8"?>
<svg version="1.1" xmlns:xlink="http://www.w3.org/1999/xlink" width="18px" height="19px" preserveAspectRatio="xMidYMin meet" viewBox="172 441  16 19" xmlns="http://www.w3.org/2000/svg">
  <path d="M 180.5 391  L 180.5 449  " stroke-width="1" stroke="#0033ff" fill="none" />
  <path d="M 180.5 386  A 3 3 0 0 0 177.5 389 A 3 3 0 0 0 180.5 392 A 3 3 0 0 0 183.5 389 A 3 3 0 0 0 180.5 386 Z M 180.5 387  A 2 2 0 0 1 182.5 389 A 2 2 0 0 1 180.5 391 A 2 2 0 0 1 178.5 389 A 2 2 0 0 1 180.5 387 Z M 174.2 448  L 180.5 454  L 186.8 448  L 174.2 448  Z " fill-rule="nonzero" fill="#0033ff" stroke="none" />
</svg>