<?xml version="1.0" encoding="utf-8"?>
<svg version="1.1" xmlns:xlink="http://www.w3.org/1999/xlink" width="18px" height="18px" preserveAspectRatio="xMinYMid meet" viewBox="578 253  18 16" xmlns="http://www.w3.org/2000/svg">
  <path d="M 587.5 263  L 587.5 321  " stroke-width="1" stroke="#0033ff" fill="none" />
  <path d="M 587.5 258  A 3 3 0 0 0 584.5 261 A 3 3 0 0 0 587.5 264 A 3 3 0 0 0 590.5 261 A 3 3 0 0 0 587.5 258 Z M 587.5 259  A 2 2 0 0 1 589.5 261 A 2 2 0 0 1 587.5 263 A 2 2 0 0 1 585.5 261 A 2 2 0 0 1 587.5 259 Z M 581.2 320  L 587.5 326  L 593.8 320  L 581.2 320  Z " fill-rule="nonzero" fill="#0033ff" stroke="none" />
</svg>