<?xml version="1.0" encoding="utf-8"?>
<svg version="1.1" xmlns:xlink="http://www.w3.org/1999/xlink" width="10px" height="73px" preserveAspectRatio="xMidYMin meet" viewBox="583 509  8 73" xmlns="http://www.w3.org/2000/svg">
  <path d="M 587.5 517  L 587.5 577  " stroke-width="1" stroke="#0033ff" fill="none" />
  <path d="M 587.975587045576 512.879093082396  A 3 3 0 0 0 584.975587045576 515.879093082396 A 3 3 0 0 0 587.975587045576 518.879093082396 A 3 3 0 0 0 590.975587045576 515.879093082396 A 3 3 0 0 0 587.975587045576 512.879093082396 Z M 587.975587045576 513.879093082396  A 2 2 0 0 1 589.975587045576 515.879093082396 A 2 2 0 0 1 587.975587045576 517.879093082396 A 2 2 0 0 1 585.975587045576 515.879093082396 A 2 2 0 0 1 587.975587045576 513.879093082396 Z M 581.2 576  L 587.5 582  L 593.8 576  L 581.2 576  Z " fill-rule="nonzero" fill="#0033ff" stroke="none" />
</svg>