<?xml version="1.0" encoding="utf-8"?>
<svg version="1.1" xmlns:xlink="http://www.w3.org/1999/xlink" width="18px" height="19px" preserveAspectRatio="xMidYMin meet" viewBox="994 313  16 19" xmlns="http://www.w3.org/2000/svg">
  <path d="M 1002.5 263  L 1002.5 321  " stroke-width="1" stroke="#0033ff" fill="none" />
  <path d="M 1002.5 258  A 3 3 0 0 0 999.5 261 A 3 3 0 0 0 1002.5 264 A 3 3 0 0 0 1005.5 261 A 3 3 0 0 0 1002.5 258 Z M 1002.5 259  A 2 2 0 0 1 1004.5 261 A 2 2 0 0 1 1002.5 263 A 2 2 0 0 1 1000.5 261 A 2 2 0 0 1 1002.5 259 Z M 996.2 320  L 1002.5 326  L 1008.8 320  L 996.2 320  Z " fill-rule="nonzero" fill="#0033ff" stroke="none" />
</svg>