<?xml version="1.0" encoding="utf-8"?>
<svg version="1.1" xmlns:xlink="http://www.w3.org/1999/xlink" width="18px" height="18px" preserveAspectRatio="xMinYMid meet" viewBox="993 381  18 16" xmlns="http://www.w3.org/2000/svg">
  <path d="M 1002.5 391  L 1002.5 449  " stroke-width="1" stroke="#0033ff" fill="none" />
  <path d="M 1002.5 386  A 3 3 0 0 0 999.5 389 A 3 3 0 0 0 1002.5 392 A 3 3 0 0 0 1005.5 389 A 3 3 0 0 0 1002.5 386 Z M 1002.5 387  A 2 2 0 0 1 1004.5 389 A 2 2 0 0 1 1002.5 391 A 2 2 0 0 1 1000.5 389 A 2 2 0 0 1 1002.5 387 Z M 996.2 448  L 1002.5 454  L 1008.8 448  L 996.2 448  Z " fill-rule="nonzero" fill="#0033ff" stroke="none" />
</svg>