<?xml version="1.0" encoding="utf-8"?>
<svg version="1.1" xmlns:xlink="http://www.w3.org/1999/xlink" width="18px" height="19px" preserveAspectRatio="xMidYMin meet" viewBox="994 569  16 19" xmlns="http://www.w3.org/2000/svg">
  <path d="M 1002.5 517  L 1002.5 577  " stroke-width="1" stroke="#0033ff" fill="none" />
  <path d="M 1002.97558704558 512.879093082396  A 3 3 0 0 0 999.975587045576 515.879093082396 A 3 3 0 0 0 1002.97558704558 518.879093082396 A 3 3 0 0 0 1005.97558704558 515.879093082396 A 3 3 0 0 0 1002.97558704558 512.879093082396 Z M 1002.97558704558 513.879093082396  A 2 2 0 0 1 1004.97558704558 515.879093082396 A 2 2 0 0 1 1002.97558704558 517.879093082396 A 2 2 0 0 1 1000.97558704558 515.879093082396 A 2 2 0 0 1 1002.97558704558 513.879093082396 Z M 996.2 576  L 1002.5 582  L 1008.8 576  L 996.2 576  Z " fill-rule="nonzero" fill="#0033ff" stroke="none" />
</svg>