<?xml version="1.0" encoding="utf-8"?>
<svg version="1.1" xmlns:xlink="http://www.w3.org/1999/xlink" width="9px" height="7px" xmlns="http://www.w3.org/2000/svg">
  <g transform="matrix(1 0 0 1 -961 -181 )">
    <path d="M 0.692307692307692 5.375  L 0.692307692307692 6.5  L 2.25 6.5  L 2.25 5.375  L 0.692307692307692 5.375  Z M 2.59615384615385 5.375  L 2.59615384615385 6.5  L 4.32692307692308 6.5  L 4.32692307692308 5.375  L 2.59615384615385 5.375  Z M 0.692307692307692 3.875  L 0.692307692307692 5.125  L 2.25 5.125  L 2.25 3.875  L 0.692307692307692 3.875  Z M 2.59615384615385 3.875  L 2.59615384615385 5.125  L 4.32692307692308 5.125  L 4.32692307692308 3.875  L 2.59615384615385 3.875  Z M 0.692307692307692 2.5  L 0.692307692307692 3.625  L 2.25 3.625  L 2.25 2.5  L 0.692307692307692 2.5  Z M 4.67307692307692 5.375  L 4.67307692307692 6.5  L 6.40384615384615 6.5  L 6.40384615384615 5.375  L 4.67307692307692 5.375  Z M 2.59615384615385 2.5  L 2.59615384615385 3.625  L 4.32692307692308 3.625  L 4.32692307692308 2.5  L 2.59615384615385 2.5  Z M 6.75 5.375  L 6.75 6.5  L 8.30769230769231 6.5  L 8.30769230769231 5.375  L 6.75 5.375  Z M 4.67307692307692 3.875  L 4.67307692307692 5.125  L 6.40384615384615 5.125  L 6.40384615384615 3.875  L 4.67307692307692 3.875  Z M 2.71784855769231 1.837890625  C 2.75210336538462 1.81315104166667  2.76923076923077 1.78385416666667  2.76923076923077 1.75  L 2.76923076923077 0.625  C 2.76923076923077 0.591145833333333  2.75210336538462 0.561848958333333  2.71784855769231 0.537109375  C 2.68359375 0.512369791666666  2.64302884615385 0.5  2.59615384615385 0.5  L 2.25 0.5  C 2.203125 0.5  2.16256009615385 0.512369791666666  2.12830528846154 0.537109375  C 2.09405048076923 0.561848958333333  2.07692307692308 0.591145833333333  2.07692307692308 0.625  L 2.07692307692308 1.75  C 2.07692307692308 1.78385416666667  2.09405048076923 1.81315104166667  2.12830528846154 1.837890625  C 2.16256009615385 1.86263020833333  2.203125 1.875  2.25 1.875  L 2.59615384615385 1.875  C 2.64302884615385 1.875  2.68359375 1.86263020833333  2.71784855769231 1.837890625  Z M 6.75 3.875  L 6.75 5.125  L 8.30769230769231 5.125  L 8.30769230769231 3.875  L 6.75 3.875  Z M 4.67307692307692 2.5  L 4.67307692307692 3.625  L 6.40384615384615 3.625  L 6.40384615384615 2.5  L 4.67307692307692 2.5  Z M 6.75 2.5  L 6.75 3.625  L 8.30769230769231 3.625  L 8.30769230769231 2.5  L 6.75 2.5  Z M 6.87169471153846 1.837890625  C 6.90594951923077 1.81315104166667  6.92307692307692 1.78385416666667  6.92307692307692 1.75  L 6.92307692307692 0.625  C 6.92307692307692 0.591145833333333  6.90594951923077 0.561848958333333  6.87169471153846 0.537109375  C 6.83743990384615 0.512369791666666  6.796875 0.5  6.75 0.5  L 6.40384615384615 0.5  C 6.35697115384616 0.5  6.31640625 0.512369791666666  6.28215144230769 0.537109375  C 6.24789663461539 0.561848958333333  6.23076923076923 0.591145833333333  6.23076923076923 0.625  L 6.23076923076923 1.75  C 6.23076923076923 1.78385416666667  6.24789663461539 1.81315104166667  6.28215144230769 1.837890625  C 6.31640625 1.86263020833333  6.35697115384616 1.875  6.40384615384615 1.875  L 6.75 1.875  C 6.796875 1.875  6.83743990384615 1.86263020833333  6.87169471153846 1.837890625  Z M 8.79447115384615 1.1484375  C 8.93149038461539 1.24739583333333  9 1.36458333333333  9 1.5  L 9 6.5  C 9 6.63541666666667  8.93149038461539 6.75260416666667  8.79447115384615 6.8515625  C 8.65745192307692 6.95052083333333  8.49519230769231 7  8.30769230769231 7  L 0.692307692307692 7  C 0.504807692307692 7  0.342548076923077 6.95052083333333  0.205528846153846 6.8515625  C 0.0685096153846154 6.75260416666667  0 6.63541666666667  0 6.5  L 0 1.5  C 0 1.36458333333333  0.0685096153846154 1.24739583333333  0.205528846153846 1.1484375  C 0.342548076923077 1.04947916666667  0.504807692307692 1  0.692307692307692 1  L 1.38461538461538 1  L 1.38461538461538 0.625  C 1.38461538461538 0.453125  1.46935096153846 0.305989583333333  1.63882211538462 0.18359375  C 1.80829326923077 0.0611979166666667  2.01201923076923 0  2.25 0  L 2.59615384615385 0  C 2.83413461538462 0  3.03786057692308 0.0611979166666667  3.20733173076923 0.18359375  C 3.37680288461539 0.305989583333333  3.46153846153846 0.453125  3.46153846153846 0.625  L 3.46153846153846 1  L 5.53846153846154 1  L 5.53846153846154 0.625  C 5.53846153846154 0.453125  5.62319711538462 0.305989583333333  5.79266826923077 0.18359375  C 5.96213942307692 0.0611979166666667  6.16586538461539 0  6.40384615384615 0  L 6.75 0  C 6.98798076923077 0  7.19170673076923 0.0611979166666667  7.36117788461539 0.18359375  C 7.53064903846154 0.305989583333333  7.61538461538462 0.453125  7.61538461538462 0.625  L 7.61538461538462 1  L 8.30769230769231 1  C 8.49519230769231 1  8.65745192307692 1.04947916666667  8.79447115384615 1.1484375  Z " fill-rule="nonzero" fill="#333333" stroke="none" transform="matrix(1 0 0 1 961 181 )" />
  </g>
</svg>