<?xml version="1.0" encoding="utf-8"?>
<svg version="1.1" xmlns:xlink="http://www.w3.org/1999/xlink" width="86px" height="100px" xmlns="http://www.w3.org/2000/svg">
  <g transform="matrix(1 0 0 1 -222 -531 )">
    <path d="M 64.7239583333333 3.79464285714286  L 82.1927083333333 21.2053571428571  C 83.2378472222222 22.2470238095238  84.1336805555556 23.6607142857143  84.8802083333333 25.4464285714286  C 85.6267361111111 27.2321428571429  86 28.8690476190476  86 30.3571428571429  L 86 94.6428571428571  C 86 96.1309523809524  85.4774305555556 97.3958333333333  84.4322916666667 98.4375  C 83.3871527777778 99.4791666666667  82.1180555555556 100  80.625 100  L 5.375 100  C 3.88194444444445 100  2.61284722222222 99.4791666666667  1.56770833333333 98.4375  C 0.522569444444444 97.3958333333333  0 96.1309523809524  0 94.6428571428571  L 0 5.35714285714286  C 0 3.86904761904762  0.522569444444444 2.60416666666666  1.56770833333333 1.5625  C 2.61284722222222 0.520833333333337  3.88194444444445 0  5.375 0  L 55.5416666666667 0  C 57.0347222222222 0  58.6770833333333 0.372023809523814  60.46875 1.11607142857143  C 62.2604166666667 1.86011904761905  63.6788194444445 2.75297619047619  64.7239583333333 3.79464285714286  Z M 59.62890625 8.81696428571429  C 59.1809895833333 8.37053571428571  58.4157986111111 7.96130952380951  57 7.58928571428571  L 57 29  L 78.3854166666667 29  C 78.0121527777778 27.4925595238095  77.6015625 26.7299107142857  77.1536458333333 26.2834821428571  L 59.62890625 8.81696428571429  Z M 8 92  L 78 92  L 78 36  L 55.5416666666667 36  C 54.0486111111111 35.7142857142857  52.7795138888889 35.1934523809524  51.734375 34.1517857142857  C 50.6892361111111 33.110119047619  50.1666666666667 31.8452380952381  50 30.3571428571429  L 50 8  L 8 8  L 8 92  Z M 21.5 43  L 43 43  C 44.9409722222222 42.8571428571429  46.6206597222222 43.5639880952381  48.0390625 44.9776785714286  C 49.4574652777778 46.391369047619  50.1666666666667 48.0654761904762  50 50  L 50 71.4285714285714  C 50.1666666666667 73.3630952380952  49.4574652777778 75.0372023809524  48.0390625 76.4508928571429  C 46.6206597222222 77.8645833333333  44.9409722222222 78.5714285714286  43 78  L 21.5 78  C 19.5590277777778 78.5714285714286  17.8793402777778 77.8645833333333  16.4609375 76.4508928571429  C 15.0425347222222 75.0372023809524  14.3333333333333 73.3630952380952  15 71.4285714285714  L 15 50  C 14.3333333333333 48.0654761904762  15.0425347222222 46.391369047619  16.4609375 44.9776785714286  C 17.8793402777778 43.5639880952381  19.5590277777778 42.8571428571429  21.5 43  Z M 69.875 42.8571428571429  C 70.0243055555556 42.8571428571429  70.2482638888889 42.8943452380952  70.546875 42.96875  C 71.2934027777778 43.266369047619  71.6666666666667 43.8244047619048  71 44.6428571428571  L 71 76.7857142857143  C 71.6666666666667 77.6041666666667  71.2934027777778 78.1622023809524  70.546875 78.4598214285714  C 70.2482638888889 78.5342261904762  70.0243055555556 78.5714285714286  69.875 78.5714285714286  C 69.3524305555556 78.5714285714286  68.9231770833333 78.4040178571429  68.5872395833333 78.0691964285714  L 53.75 63.2254464285714  L 53.75 58.203125  L 68.5872395833333 43.359375  C 68.9231770833333 43.0245535714286  69.3524305555556 42.8571428571429  69.875 42.8571428571429  Z " fill-rule="nonzero" fill="#000000" stroke="none" transform="matrix(1 0 0 1 222 531 )" />
  </g>
</svg>