<?xml version="1.0" encoding="utf-8"?>
<svg version="1.1" xmlns:xlink="http://www.w3.org/1999/xlink" width="86px" height="100px" xmlns="http://www.w3.org/2000/svg">
  <g transform="matrix(1 0 0 1 -222 -729 )">
    <path d="M 64.7239583333333 3.79464285714286  L 82.1927083333333 21.2053571428571  C 83.2378472222222 22.2470238095238  84.1336805555556 23.6607142857143  84.8802083333333 25.4464285714286  C 85.6267361111111 27.2321428571429  86 28.8690476190476  86 30.3571428571429  L 86 94.6428571428571  C 86 96.1309523809524  85.4774305555556 97.3958333333333  84.4322916666667 98.4375  C 83.3871527777778 99.4791666666667  82.1180555555556 100  80.625 100  L 5.375 100  C 3.88194444444445 100  2.61284722222222 99.4791666666667  1.56770833333333 98.4375  C 0.522569444444444 97.3958333333333  0 96.1309523809524  0 94.6428571428571  L 0 5.35714285714286  C 0 3.86904761904762  0.522569444444444 2.60416666666666  1.56770833333333 1.5625  C 2.61284722222222 0.520833333333337  3.88194444444445 0  5.375 0  L 55.5416666666667 0  C 57.0347222222222 0  58.6770833333333 0.372023809523814  60.46875 1.11607142857143  C 62.2604166666667 1.86011904761905  63.6788194444445 2.75297619047619  64.7239583333333 3.79464285714286  Z M 59.62890625 8.81696428571429  C 59.1809895833333 8.37053571428571  58.4157986111111 7.96130952380951  57 7.58928571428571  L 57 29  L 78.3854166666667 29  C 78.0121527777778 27.4925595238095  77.6015625 26.7299107142857  77.1536458333333 26.2834821428571  L 59.62890625 8.81696428571429  Z M 8 92  L 78 92  L 78 36  L 55.5416666666667 36  C 54.0486111111111 35.7142857142857  52.7795138888889 35.1934523809524  51.734375 34.1517857142857  C 50.6892361111111 33.110119047619  50.1666666666667 31.8452380952381  50 30.3571428571429  L 50 8  L 8 8  L 8 92  Z M 32.75390625 47.8236607142857  C 33.3511284722222 47.265625  34.0043402777778 47.1354166666667  34.7135416666667 47.4330357142857  C 35.4600694444444 47.7306547619048  35.8333333333333 48.2886904761905  36 49.1071428571429  L 36 79.4642857142857  C 35.8333333333333 80.2827380952381  35.4600694444444 80.8407738095238  34.7135416666667 81.1383928571429  C 34.4149305555556 81.2127976190476  34.1909722222222 81.25  34.0416666666667 81.25  C 33.59375 81.25  33.1644965277778 81.0825892857143  32.75390625 80.7477678571429  L 23.4596354166667 71.4285714285714  L 16.125 71.4285714285714  C 15.6024305555556 71.4285714285714  15.1731770833333 71.2611607142857  14.8372395833333 70.9263392857143  C 14.5013020833333 70.5915178571429  14.3333333333333 70.1636904761905  15 69.6428571428571  L 15 58.9285714285714  C 14.3333333333333 58.4077380952381  14.5013020833333 57.9799107142857  14.8372395833333 57.6450892857143  C 15.1731770833333 57.3102678571429  15.6024305555556 57.1428571428571  16.125 57.1428571428571  L 23.4596354166667 57.1428571428571  L 32.75390625 47.8236607142857  Z M 55.8216145833333 85.0446428571429  C 56.4934895833333 85.6026785714286  57.2400173611111 85.8816964285714  58.0611979166667 85.8816964285714  C 59.2183159722222 85.8816964285714  60.1514756944445 85.4352678571429  60.8606770833333 84.5424107142857  C 65.67578125 78.6272321428571  68.0833333333333 71.875  68.0833333333333 64.2857142857143  C 68.0833333333333 56.6964285714286  65.67578125 49.9441964285714  60.8606770833333 44.0290178571429  C 60.2634548611111 43.2477678571429  59.4609375 42.8013392857143  58.453125 42.6897321428571  C 57.4453125 42.578125  56.5681423611111 42.8385416666667  55.8216145833333 43.4709821428571  C 55.0377604166667 44.1034226190476  54.5991753472222 44.9125744047619  54.505859375 45.8984375  C 54.4125434027778 46.8843005952381  54.6831597222222 47.7678571428571  55.3177083333333 48.5491071428571  C 59.0503472222222 53.125  60.9166666666667 58.3705357142857  60.9166666666667 64.2857142857143  C 60.9166666666667 70.2008928571429  59.0503472222222 75.4464285714286  55.3177083333333 80.0223214285714  C 54.6831597222222 80.8035714285714  54.4125434027778 81.6871279761905  54.505859375 82.6729910714286  C 54.5991753472222 83.6588541666667  55.0377604166667 84.4494047619048  55.8216145833333 85.0446428571429  Z M 43.7838541666667 76.6741071428571  C 44.5303819444445 77.3065476190476  45.3515625 77.6227678571429  46.2473958333333 77.6227678571429  C 47.2552083333333 77.6227678571429  48.1323784722222 77.2507440476191  48.87890625 76.5066964285714  C 52.1263020833333 73.046875  53.75 68.9732142857143  53.75 64.2857142857143  C 53.75 59.5982142857143  52.1263020833333 55.5245535714286  48.87890625 52.0647321428571  C 48.20703125 51.3578869047619  47.3671875 50.9858630952381  46.359375 50.9486607142857  C 45.3515625 50.9114583333333  44.4930555555556 51.2276785714286  43.7838541666667 51.8973214285714  C 43.0746527777778 52.5669642857143  42.7013888888889 53.3947172619048  42.6640625 54.3805803571429  C 42.6267361111111 55.366443452381  42.9626736111111 56.2313988095238  43.671875 56.9754464285714  C 45.6128472222222 59.0959821428571  46.5833333333333 61.5327380952381  46.5833333333333 64.2857142857143  C 46.5833333333333 67.0386904761905  45.6128472222222 69.4754464285714  43.671875 71.5959821428571  C 42.9626736111111 72.3400297619048  42.6267361111111 73.2049851190476  42.6640625 74.1908482142857  C 42.7013888888889 75.1767113095238  43.0746527777778 76.0044642857143  43.7838541666667 76.6741071428571  Z " fill-rule="nonzero" fill="#000000" stroke="none" transform="matrix(1 0 0 1 222 729 )" />
  </g>
</svg>