<?xml version="1.0" encoding="utf-8"?>
<svg version="1.1" xmlns:xlink="http://www.w3.org/1999/xlink" width="87px" height="84px" xmlns="http://www.w3.org/2000/svg">
  <g transform="matrix(1 0 0 1 -222 -356 )">
    <path d="M 222 356  L 309 356  L 309 440  L 222 440  L 222 356  " fill-rule="nonzero" fill="#cccccc" stroke="none" />
    <path d="M 228 362  L 303 362  L 303 434  L 228 434  L 228 362  " fill-rule="nonzero" fill="#ffffff" stroke="none" />
    <path d="M 273.54 381.2  C 270.012 381.2  267.24 378.428  267.24 374.9  C 267.24 371.372  270.012 368.6  273.54 368.6  C 277.068 368.6  279.84 371.372  279.84 374.9  C 279.84 378.428  277.068 381.2  273.54 381.2  " fill-rule="nonzero" fill="#cccccc" stroke="none" />
    <path d="M 230 432  L 230 394.6  L 247.75 377.6  L 272.6 392.606896551724  L 286.8 387.8  L 301 392.606896551724  L 301 432  L 230 432  " fill-rule="nonzero" fill="#169bd5" stroke="none" />
  </g>
</svg>