<?xml version="1.0" encoding="utf-8"?>
<svg version="1.1" xmlns:xlink="http://www.w3.org/1999/xlink" width="15px" height="19px" xmlns="http://www.w3.org/2000/svg">
  <g transform="matrix(1 0 0 1 -249 -20 )">
    <path d="M 14.7422680412371 9.06212424849699  C 14.914089347079 9.18904475617902  15 9.33500334001336  15 9.5  C 15 9.66499665998664  14.914089347079 9.81095524382097  14.7422680412371 9.93787575150301  L 2.7319587628866 18.809619238477  C 2.56013745704467 18.936539746159  2.36254295532646 19  2.13917525773196 19  C 1.91580756013746 19  1.71821305841924 18.936539746159  1.54639175257732 18.809619238477  L 0.257731958762887 17.8577154308617  C 0.0859106529209623 17.7307949231797  0 17.5848363393454  0 17.4198396793587  C 0 17.2548430193721  0.0859106529209623 17.1088844355377  0.257731958762887 16.9819639278557  L 10.3865979381443 9.5  L 0.257731958762887 2.01803607214429  C 0.0859106529209623 1.89111556446226  0 1.74515698062792  0 1.58016032064128  C 0 1.41516366065464  0.0859106529209623 1.26920507682031  0.257731958762887 1.14228456913828  L 1.54639175257732 0.190380761523046  C 1.71821305841924 0.0634602538410147  1.91580756013746 0  2.13917525773196 0  C 2.36254295532646 0  2.56013745704467 0.0634602538410147  2.7319587628866 0.190380761523046  L 14.7422680412371 9.06212424849699  Z " fill-rule="nonzero" fill="#797979" stroke="none" transform="matrix(1 0 0 1 249 20 )" />
  </g>
</svg>