<?xml version="1.0" encoding="utf-8"?>
<svg version="1.1" xmlns:xlink="http://www.w3.org/1999/xlink" width="11px" height="10px" xmlns="http://www.w3.org/2000/svg">
  <g transform="matrix(1 0 0 1 -15 -12 )">
    <path d="M 10.7958984375 0.329861111111112  C 10.9319661458333 0.549768518518517  11 0.810185185185183  11 1.11111111111111  C 11 1.41203703703704  10.9319661458333 1.6724537037037  10.7958984375 1.89236111111111  L 5.9833984375 9.67013888888889  C 5.84733072916667 9.8900462962963  5.68619791666667 10  5.5 10  C 5.31380208333333 10  5.15266927083333 9.8900462962963  5.0166015625 9.67013888888889  L 0.2041015625 1.89236111111111  C 0.0680338541666667 1.6724537037037  0 1.41203703703704  0 1.11111111111111  C 0 0.810185185185183  0.0680338541666667 0.549768518518517  0.2041015625 0.329861111111112  C 0.340169270833333 0.109953703703702  0.501302083333333 0  0.6875 0  L 10.3125 0  C 10.4986979166667 0  10.6598307291667 0.109953703703702  10.7958984375 0.329861111111112  Z " fill-rule="nonzero" fill="#797979" stroke="none" transform="matrix(1 0 0 1 15 12 )" />
  </g>
</svg>