<?xml version="1.0" encoding="utf-8"?>
<svg version="1.1" xmlns:xlink="http://www.w3.org/1999/xlink" width="12px" height="12px" viewBox="445 363.5  12 12" xmlns="http://www.w3.org/2000/svg">
  <path d="M 451 363.5  C 454.36 363.5  457 366.14  457 369.5  C 457 372.86  454.36 375.5  451 375.5  C 447.64 375.5  445 372.86  445 369.5  C 445 366.14  447.64 363.5  451 363.5  Z " fill-rule="nonzero" fill="#f0f0f0" stroke="none" />
  <path d="M 451 364  C 454.08 364  456.5 366.42  456.5 369.5  C 456.5 372.58  454.08 375  451 375  C 447.92 375  445.5 372.58  445.5 369.5  C 445.5 366.42  447.92 364  451 364  Z " stroke-width="1" stroke="#797979" fill="none" />
  <path d="M 451 372.5  C 449.32 372.5  448 371.18  448 369.5  C 448 367.82  449.32 366.5  451 366.5  C 452.68 366.5  454 367.82  454 369.5  C 454 371.18  452.68 372.5  451 372.5  " fill-rule="nonzero" fill="#797979" stroke="none" />
</svg>