<?xml version="1.0" encoding="utf-8"?>
<svg version="1.1" xmlns:xlink="http://www.w3.org/1999/xlink" width="12px" height="12px" viewBox="445 445.5  12 12" xmlns="http://www.w3.org/2000/svg">
  <path d="M 451 445.5  C 454.36 445.5  457 448.14  457 451.5  C 457 454.86  454.36 457.5  451 457.5  C 447.64 457.5  445 454.86  445 451.5  C 445 448.14  447.64 445.5  451 445.5  Z " fill-rule="nonzero" fill="#ffffff" stroke="none" />
  <path d="M 451 446  C 454.08 446  456.5 448.42  456.5 451.5  C 456.5 454.58  454.08 457  451 457  C 447.92 457  445.5 454.58  445.5 451.5  C 445.5 448.42  447.92 446  451 446  Z " stroke-width="1" stroke="#797979" fill="none" />
  <path d="M 451 454.5  C 449.32 454.5  448 453.18  448 451.5  C 448 449.82  449.32 448.5  451 448.5  C 452.68 448.5  454 449.82  454 451.5  C 454 453.18  452.68 454.5  451 454.5  " fill-rule="nonzero" fill="#797979" stroke="none" />
</svg>