<?xml version="1.0" encoding="utf-8"?>
<svg version="1.1" xmlns:xlink="http://www.w3.org/1999/xlink" width="12px" height="12px" viewBox="445 327.5  12 12" xmlns="http://www.w3.org/2000/svg">
  <path d="M 451 327.5  C 454.36 327.5  457 330.14  457 333.5  C 457 336.86  454.36 339.5  451 339.5  C 447.64 339.5  445 336.86  445 333.5  C 445 330.14  447.64 327.5  451 327.5  Z " fill-rule="nonzero" fill="#f0f0f0" stroke="none" />
  <path d="M 451 328  C 454.08 328  456.5 330.42  456.5 333.5  C 456.5 336.58  454.08 339  451 339  C 447.92 339  445.5 336.58  445.5 333.5  C 445.5 330.42  447.92 328  451 328  Z " stroke-width="1" stroke="#797979" fill="none" />
  <path d="M 451 336.5  C 449.32 336.5  448 335.18  448 333.5  C 448 331.82  449.32 330.5  451 330.5  C 452.68 330.5  454 331.82  454 333.5  C 454 335.18  452.68 336.5  451 336.5  " fill-rule="nonzero" fill="#797979" stroke="none" />
</svg>