<?xml version="1.0" encoding="utf-8"?>
<svg version="1.1" xmlns:xlink="http://www.w3.org/1999/xlink" width="12px" height="12px" viewBox="445 292.5  12 12" xmlns="http://www.w3.org/2000/svg">
  <path d="M 451 292.5  C 454.36 292.5  457 295.14  457 298.5  C 457 301.86  454.36 304.5  451 304.5  C 447.64 304.5  445 301.86  445 298.5  C 445 295.14  447.64 292.5  451 292.5  Z " fill-rule="nonzero" fill="#f0f0f0" stroke="none" />
  <path d="M 451 293  C 454.08 293  456.5 295.42  456.5 298.5  C 456.5 301.58  454.08 304  451 304  C 447.92 304  445.5 301.58  445.5 298.5  C 445.5 295.42  447.92 293  451 293  Z " stroke-width="1" stroke="#797979" fill="none" />
  <path d="M 451 301.5  C 449.32 301.5  448 300.18  448 298.5  C 448 296.82  449.32 295.5  451 295.5  C 452.68 295.5  454 296.82  454 298.5  C 454 300.18  452.68 301.5  451 301.5  " fill-rule="nonzero" fill="#797979" stroke="none" />
</svg>