<?xml version="1.0" encoding="utf-8"?>
<svg version="1.1" xmlns:xlink="http://www.w3.org/1999/xlink" width="12px" height="12px" viewBox="445 256.5  12 12" xmlns="http://www.w3.org/2000/svg">
  <path d="M 451 256.5  C 454.36 256.5  457 259.14  457 262.5  C 457 265.86  454.36 268.5  451 268.5  C 447.64 268.5  445 265.86  445 262.5  C 445 259.14  447.64 256.5  451 256.5  Z " fill-rule="nonzero" fill="#f0f0f0" stroke="none" />
  <path d="M 451 257  C 454.08 257  456.5 259.42  456.5 262.5  C 456.5 265.58  454.08 268  451 268  C 447.92 268  445.5 265.58  445.5 262.5  C 445.5 259.42  447.92 257  451 257  Z " stroke-width="1" stroke="#797979" fill="none" />
  <path d="M 451 265.5  C 449.32 265.5  448 264.18  448 262.5  C 448 260.82  449.32 259.5  451 259.5  C 452.68 259.5  454 260.82  454 262.5  C 454 264.18  452.68 265.5  451 265.5  " fill-rule="nonzero" fill="#797979" stroke="none" />
</svg>