<?xml version="1.0" encoding="utf-8"?>
<svg version="1.1" xmlns:xlink="http://www.w3.org/1999/xlink" width="329px" height="192px" xmlns="http://www.w3.org/2000/svg">
  <g transform="matrix(1 0 0 1 -654 -325 )">
    <path d="M 654 325  L 983 325  L 983 517  L 654 517  L 654 325  " fill-rule="nonzero" fill="#cccccc" stroke="none" />
    <path d="M 667 338  L 970 338  L 970 504  L 667 504  L 667 338  " fill-rule="nonzero" fill="#ffffff" stroke="none" />
    <path d="M 839.48 382.6  C 831.416 382.6  825.08 376.264  825.08 368.2  C 825.08 360.136  831.416 353.8  839.48 353.8  C 847.544 353.8  853.88 360.136  853.88 368.2  C 853.88 376.264  847.544 382.6  839.48 382.6  " fill-rule="nonzero" fill="#cccccc" stroke="none" />
    <path d="M 672 499  L 672 413.2  L 745.25 374.2  L 847.8 444.376291793313  L 906.4 397.6  L 965 444.376291793313  L 965 499  L 672 499  " fill-rule="nonzero" fill="#169bd5" stroke="none" />
  </g>
</svg>