<?xml version="1.0" encoding="utf-8"?>
<svg version="1.1" xmlns:xlink="http://www.w3.org/1999/xlink" width="75px" height="57px" xmlns="http://www.w3.org/2000/svg">
  <g transform="matrix(1 0 0 1 -445 -424 )">
    <path d="M 445 424  L 520 424  L 520 481  L 445 481  L 445 424  " fill-rule="nonzero" fill="#cccccc" stroke="none" />
    <path d="M 449 428  L 516 428  L 516 477  L 449 477  L 449 428  " fill-rule="nonzero" fill="#ffffff" stroke="none" />
    <path d="M 488.275 441.1  C 485.881 441.1  484 439.219  484 436.825  C 484 434.431  485.881 432.55  488.275 432.55  C 490.669 432.55  492.55 434.431  492.55 436.825  C 492.55 439.219  490.669 441.1  488.275 441.1  " fill-rule="nonzero" fill="#cccccc" stroke="none" />
    <path d="M 451 476  L 451 450.7  L 467 439.2  L 489.4 455.024  L 502.2 446.1  L 515 455.024  L 515 476  L 451 476  " fill-rule="nonzero" fill="#169bd5" stroke="none" />
  </g>
</svg>