<?xml version="1.0" encoding="utf-8"?>
<svg version="1.1" xmlns:xlink="http://www.w3.org/1999/xlink" width="15px" height="21px" xmlns="http://www.w3.org/2000/svg">
  <g transform="matrix(1 0 0 1 -426 -273 )">
    <path d="M 14.7422680412371 1.2625250501002  C 14.914089347079 1.40280561122244  15 1.56412825651302  15 1.74649298597194  C 15 1.92885771543086  14.914089347079 2.09018036072144  14.7422680412371 2.23046092184369  L 4.61340206185567 10.5  L 14.7422680412371 18.7695390781563  C 14.914089347079 18.9098196392786  15 19.0711422845691  15 19.2535070140281  C 15 19.435871743487  14.914089347079 19.5971943887776  14.7422680412371 19.7374749498998  L 13.4536082474227 20.7895791583166  C 13.2817869415808 20.9298597194389  13.0841924398625 21  12.860824742268 21  C 12.6374570446735 21  12.4398625429553 20.9298597194389  12.2680412371134 20.7895791583166  L 0.257731958762887 10.9839679358717  C 0.0859106529209623 10.8436873747495  0 10.6823647294589  0 10.5  C 0 10.3176352705411  0.0859106529209623 10.1563126252505  0.257731958762887 10.0160320641283  L 12.2680412371134 0.210420841683367  C 12.4398625429553 0.0701402805611215  12.6374570446735 0  12.860824742268 0  C 13.0841924398625 0  13.2817869415808 0.0701402805611215  13.4536082474227 0.210420841683367  L 14.7422680412371 1.2625250501002  Z " fill-rule="nonzero" fill="#9a9a9a" stroke="none" transform="matrix(1 0 0 1 426 273 )" />
  </g>
</svg>