<?xml version="1.0" encoding="utf-8"?>
<svg version="1.1" xmlns:xlink="http://www.w3.org/1999/xlink" width="95px" height="92px" xmlns="http://www.w3.org/2000/svg">
  <g transform="matrix(1 0 0 1 -222 -164 )">
    <path d="M 222 164  L 317 164  L 317 256  L 222 256  L 222 164  " fill-rule="nonzero" fill="#cccccc" stroke="none" />
    <path d="M 228 170  L 311 170  L 311 250  L 228 250  L 228 170  " fill-rule="nonzero" fill="#ffffff" stroke="none" />
    <path d="M 278.3 191.6  C 274.436 191.6  271.4 188.564  271.4 184.7  C 271.4 180.836  274.436 177.8  278.3 177.8  C 282.164 177.8  285.2 180.836  285.2 184.7  C 285.2 188.564  282.164 191.6  278.3 191.6  " fill-rule="nonzero" fill="#cccccc" stroke="none" />
    <path d="M 231 248  L 231 206.75  L 250.5 188  L 277.8 204.421052631579  L 293.4 199.25  L 309 204.421052631579  L 309 248  L 231 248  " fill-rule="nonzero" fill="#169bd5" stroke="none" />
  </g>
</svg>