<?xml version="1.0" encoding="utf-8"?>
<svg version="1.1" xmlns:xlink="http://www.w3.org/1999/xlink" width="94px" height="109px" xmlns="http://www.w3.org/2000/svg">
  <g transform="matrix(1 0 0 1 -222 -349 )">
    <path d="M 70.7447916666667 4.13616071428572  L 89.8385416666667 23.1138392857143  C 90.9809027777778 24.2492559523809  91.9600694444444 25.7901785714286  92.7760416666667 27.7366071428571  C 93.5920138888889 29.6830357142857  94 31.4672619047619  94 33.0892857142857  L 94 103.160714285714  C 94 104.782738095238  93.4288194444444 106.161458333333  92.2864583333333 107.296875  C 91.1440972222222 108.432291666667  89.7569444444444 109  88.125 109  L 5.875 109  C 4.24305555555556 109  2.85590277777778 108.432291666667  1.71354166666667 107.296875  C 0.571180555555555 106.161458333333  0 104.782738095238  0 103.160714285714  L 0 5.83928571428572  C 0 4.2172619047619  0.571180555555555 2.83854166666666  1.71354166666667 1.703125  C 2.85590277777778 0.567708333333337  4.24305555555556 0  5.875 0  L 60.7083333333333 0  C 62.3402777777778 0  64.1354166666667 0.405505952380957  66.09375 1.21651785714286  C 68.0520833333333 2.02752976190476  69.6024305555556 3.00074404761904  70.7447916666667 4.13616071428572  Z M 65.17578125 9.61049107142858  C 64.6861979166667 9.12388392857142  63.8498263888889 8.67782738095237  62 8.27232142857142  L 62 32  L 85.6770833333333 32  C 85.2690972222222 29.9668898809524  84.8203125 29.1356026785714  84.3307291666667 28.6489955357143  L 65.17578125 9.61049107142858  Z M 8 101  L 86 101  L 86 39  L 60.7083333333333 39  C 59.0763888888889 38.9285714285714  57.6892361111111 38.3608630952381  56.546875 37.2254464285714  C 55.4045138888889 36.0900297619048  54.8333333333333 34.7113095238095  54 33.0892857142857  L 54 8  L 8 8  L 8 101  Z M 23.5 47  L 47 47  C 49.1215277777778 46.7142857142857  50.9574652777778 47.4847470238095  52.5078125 49.0256696428571  C 54.0581597222222 50.5665922619048  54.8333333333333 52.391369047619  54 54.5  L 54 77.8571428571429  C 54.8333333333333 79.9657738095238  54.0581597222222 81.7905505952381  52.5078125 83.3314732142857  C 50.9574652777778 84.8723958333333  49.1215277777778 85.6428571428571  47 85  L 23.5 85  C 21.3784722222222 85.6428571428571  19.5425347222222 84.8723958333333  17.9921875 83.3314732142857  C 16.4418402777778 81.7905505952381  15.6666666666667 79.9657738095238  16 77.8571428571429  L 16 54.5  C 15.6666666666667 52.391369047619  16.4418402777778 50.5665922619048  17.9921875 49.0256696428571  C 19.5425347222222 47.4847470238095  21.3784722222222 46.7142857142857  23.5 47  Z M 76.375 46.7142857142857  C 76.5381944444444 46.7142857142857  76.7829861111111 46.7548363095238  77.109375 46.8359375  C 77.9253472222222 47.1603422619048  78.3333333333333 47.7686011904762  78 48.6607142857143  L 78 83.6964285714286  C 78.3333333333333 84.5885416666667  77.9253472222222 85.1968005952381  77.109375 85.5212053571429  C 76.7829861111111 85.602306547619  76.5381944444444 85.6428571428571  76.375 85.6428571428571  C 75.8038194444444 85.6428571428571  75.3346354166667 85.4603794642857  74.9674479166667 85.0954241071429  L 58.75 68.9157366071429  L 58.75 63.44140625  L 74.9674479166667 47.26171875  C 75.3346354166667 46.8967633928571  75.8038194444444 46.7142857142857  76.375 46.7142857142857  Z " fill-rule="nonzero" fill="#000000" stroke="none" transform="matrix(1 0 0 1 222 349 )" />
  </g>
</svg>