<?xml version="1.0" encoding="utf-8"?>
<svg version="1.1" xmlns:xlink="http://www.w3.org/1999/xlink" width="94px" height="109px" xmlns="http://www.w3.org/2000/svg">
  <g transform="matrix(1 0 0 1 -222 -529 )">
    <path d="M 70.7447916666667 4.13616071428572  L 89.8385416666667 23.1138392857143  C 90.9809027777778 24.2492559523809  91.9600694444444 25.7901785714286  92.7760416666667 27.7366071428571  C 93.5920138888889 29.6830357142857  94 31.4672619047619  94 33.0892857142857  L 94 103.160714285714  C 94 104.782738095238  93.4288194444444 106.161458333333  92.2864583333333 107.296875  C 91.1440972222222 108.432291666667  89.7569444444444 109  88.125 109  L 5.875 109  C 4.24305555555556 109  2.85590277777778 108.432291666667  1.71354166666667 107.296875  C 0.571180555555555 106.161458333333  0 104.782738095238  0 103.160714285714  L 0 5.83928571428572  C 0 4.2172619047619  0.571180555555555 2.83854166666666  1.71354166666667 1.703125  C 2.85590277777778 0.567708333333337  4.24305555555556 0  5.875 0  L 60.7083333333333 0  C 62.3402777777778 0  64.1354166666667 0.405505952380957  66.09375 1.21651785714286  C 68.0520833333333 2.02752976190476  69.6024305555556 3.00074404761904  70.7447916666667 4.13616071428572  Z M 65.17578125 9.61049107142858  C 64.6861979166667 9.12388392857142  63.8498263888889 8.67782738095237  62 8.27232142857142  L 62 32  L 85.6770833333333 32  C 85.2690972222222 29.9668898809524  84.8203125 29.1356026785714  84.3307291666667 28.6489955357143  L 65.17578125 9.61049107142858  Z M 8 101  L 86 101  L 86 39  L 60.7083333333333 39  C 59.0763888888889 38.9285714285714  57.6892361111111 38.3608630952381  56.546875 37.2254464285714  C 55.4045138888889 36.0900297619048  54.8333333333333 34.7113095238095  54 33.0892857142857  L 54 8  L 8 8  L 8 101  Z M 35.80078125 52.1277901785714  C 36.4535590277778 51.51953125  37.1675347222222 51.3776041666667  37.9427083333333 51.7020089285714  C 38.7586805555556 52.0264136904762  39.1666666666667 52.6346726190476  40 53.5267857142857  L 40 86.6160714285714  C 39.1666666666667 87.5081845238095  38.7586805555556 88.116443452381  37.9427083333333 88.4408482142857  C 37.6163194444445 88.5219494047619  37.3715277777778 88.5625  37.2083333333333 88.5625  C 36.71875 88.5625  36.2495659722222 88.3800223214286  35.80078125 88.0150669642857  L 25.6419270833333 77.8571428571429  L 17.625 77.8571428571429  C 17.0538194444444 77.8571428571429  16.5846354166667 77.6746651785714  16.2174479166667 77.3097098214286  C 15.8502604166667 76.9447544642857  15.6666666666667 76.4784226190476  16 75.9107142857143  L 16 64.2321428571429  C 15.6666666666667 63.6644345238095  15.8502604166667 63.1981026785714  16.2174479166667 62.8331473214286  C 16.5846354166667 62.4681919642857  17.0538194444444 62.2857142857143  17.625 62.2857142857143  L 25.6419270833333 62.2857142857143  L 35.80078125 52.1277901785714  Z M 61.0143229166667 92.6986607142857  C 61.7486979166667 93.3069196428571  62.5646701388889 93.6110491071429  63.4622395833333 93.6110491071429  C 64.7269965277778 93.6110491071429  65.7469618055556 93.1244419642857  66.5221354166667 92.1512276785714  C 71.78515625 85.7036830357143  74.4166666666667 78.34375  74.4166666666667 70.0714285714286  C 74.4166666666667 61.7991071428571  71.78515625 54.4391741071429  66.5221354166667 47.9916294642857  C 65.8693576388889 47.1400669642857  64.9921875 46.6534598214286  63.890625 46.5318080357143  C 62.7890625 46.41015625  61.8302951388889 46.6940104166667  61.0143229166667 47.3833705357143  C 60.1575520833333 48.0727306547619  59.6781684027778 48.9547061011905  59.576171875 50.029296875  C 59.4741753472222 51.1038876488095  59.7699652777778 52.0669642857143  60.4635416666667 52.9185267857143  C 64.5434027777778 57.90625  66.5833333333333 63.6238839285714  66.5833333333333 70.0714285714286  C 66.5833333333333 76.5189732142857  64.5434027777778 82.2366071428571  60.4635416666667 87.2243303571429  C 59.7699652777778 88.0758928571429  59.4741753472222 89.0389694940476  59.576171875 90.1135602678571  C 59.6781684027778 91.1881510416667  60.1575520833333 92.0498511904762  61.0143229166667 92.6986607142857  Z M 47.8567708333333 83.5747767857143  C 48.6727430555556 84.2641369047619  49.5703125 84.6088169642857  50.5494791666667 84.6088169642857  C 51.6510416666667 84.6088169642857  52.6098090277778 84.2033110119048  53.42578125 83.3922991071429  C 56.9752604166667 79.62109375  58.75 75.1808035714286  58.75 70.0714285714286  C 58.75 64.9620535714286  56.9752604166667 60.5217633928571  53.42578125 56.7505580357143  C 52.69140625 55.9800967261905  51.7734375 55.5745907738095  50.671875 55.5340401785714  C 49.5703125 55.4934895833333  48.6319444444445 55.8381696428571  47.8567708333333 56.5680803571429  C 47.0815972222222 57.2979910714286  46.6736111111111 58.2002418154762  46.6328125 59.2748325892857  C 46.5920138888889 60.3494233630952  46.9592013888889 61.292224702381  47.734375 62.1032366071429  C 49.8559027777778 64.4146205357143  50.9166666666667 67.0706845238095  50.9166666666667 70.0714285714286  C 50.9166666666667 73.0721726190476  49.8559027777778 75.7282366071429  47.734375 78.0396205357143  C 46.9592013888889 78.8506324404762  46.5920138888889 79.7934337797619  46.6328125 80.8680245535714  C 46.6736111111111 81.942615327381  47.0815972222222 82.8448660714286  47.8567708333333 83.5747767857143  Z " fill-rule="nonzero" fill="#000000" stroke="none" transform="matrix(1 0 0 1 222 529 )" />
  </g>
</svg>