<?xml version="1.0" encoding="utf-8"?>
<svg version="1.1" xmlns:xlink="http://www.w3.org/1999/xlink" width="54px" height="52px" xmlns="http://www.w3.org/2000/svg">
  <g transform="matrix(1 0 0 1 -266 -749 )">
    <path d="M 40.921875 47.2225  C 41.3329326923077 46.8108333333333  41.5384615384615 46.3233333333333  41.5384615384615 45.76  C 41.5384615384615 45.1966666666667  41.3329326923077 44.7091666666667  40.921875 44.2975  C 40.5108173076923 43.8858333333333  40.0240384615385 43.68  39.4615384615385 43.68  C 38.8990384615385 43.68  38.4122596153846 43.8858333333333  38.0012019230769 44.2975  C 37.5901442307692 44.7091666666667  37.3846153846154 45.1966666666667  37.3846153846154 45.76  C 37.3846153846154 46.3233333333333  37.5901442307692 46.8108333333333  38.0012019230769 47.2225  C 38.4122596153846 47.6341666666667  38.8990384615385 47.84  39.4615384615385 47.84  C 40.0240384615385 47.84  40.5108173076923 47.6341666666667  40.921875 47.2225  Z M 49.2295673076923 47.2225  C 49.640625 46.8108333333333  49.8461538461538 46.3233333333333  49.8461538461538 45.76  C 49.8461538461538 45.1966666666667  49.640625 44.7091666666667  49.2295673076923 44.2975  C 48.8185096153846 43.8858333333333  48.3317307692308 43.68  47.7692307692308 43.68  C 47.2067307692308 43.68  46.7199519230769 43.8858333333333  46.3088942307692 44.2975  C 45.8978365384615 44.7091666666667  45.6923076923077 45.1966666666667  45.6923076923077 45.76  C 45.6923076923077 46.3233333333333  45.8978365384615 46.8108333333333  46.3088942307692 47.2225  C 46.7199519230769 47.6341666666667  47.2067307692308 47.84  47.7692307692308 47.84  C 48.3317307692308 47.84  48.8185096153846 47.6341666666667  49.2295673076923 47.2225  Z M 53.0913461538462 36.27  C 53.6971153846154 36.8766666666667  54 37.6133333333333  54 38.48  L 54 48.88  C 54 49.7466666666667  53.6971153846154 50.4833333333333  53.0913461538462 51.09  C 52.4855769230769 51.6966666666667  51.75 52  50.8846153846154 52  L 3.11538461538462 52  C 2.25 52  1.51442307692308 51.6966666666667  0.908653846153846 51.09  C 0.302884615384615 50.4833333333333  0 49.7466666666667  0 48.88  L 0 38.48  C 0 37.6133333333333  0.302884615384615 36.8766666666667  0.908653846153846 36.27  C 1.51442307692308 35.6633333333333  2.25 35.36  3.11538461538462 35  L 16.9723557692308 35  C 17.4266826923077 36.5733333333333  18.1893028846154 37.57  19.2602163461538 38.35  C 20.3311298076923 39.13  21.5264423076923 39.52  22.8461538461538 39.52  L 31.1538461538462 39.52  C 32.4735576923077 39.52  33.6688701923077 39.13  34.7397836538462 38.35  C 35.8106971153846 37.57  36.5733173076923 36.5733333333333  37.0276442307692 35  L 50.8846153846154 35  C 51.75 35.36  52.4855769230769 35.6633333333333  53.0913461538462 36.27  Z M 42.9987980769231 15.1775  C 43.6694711538462 15.8275  43.8209134615385 16.575  43.453125 17.42  C 43.0853365384615 18.2866666666667  42.4471153846154 18.72  41.5384615384615 18.72  L 33 18.72  L 33 33.28  C 33.2307692307692 33.8433333333333  33.0252403846154 34.3308333333333  32.6141826923077 34.7425  C 32.203125 35.1541666666667  31.7163461538462 35.36  31.1538461538462 35.36  L 22.8461538461538 35.36  C 22.2836538461538 35.36  21.796875 35.1541666666667  21.3858173076923 34.7425  C 20.9747596153846 34.3308333333333  20.7692307692308 33.8433333333333  21 33.28  L 21 18.72  L 12.4615384615385 18.72  C 11.5528846153846 18.72  10.9146634615385 18.2866666666667  10.546875 17.42  C 10.1790865384615 16.575  10.3305288461538 15.8275  11.0012019230769 15.1775  L 25.5396634615385 0.617499999999998  C 25.9290865384615 0.205833333333331  26.4158653846154 0  27 0  C 27.5841346153846 0  28.0709134615385 0.205833333333331  28.4603365384615 0.617499999999998  L 42.9987980769231 15.1775  Z " fill-rule="nonzero" fill="#000000" stroke="none" transform="matrix(1 0 0 1 266 749 )" />
  </g>
</svg>