<?xml version="1.0" encoding="utf-8"?>
<svg version="1.1" xmlns:xlink="http://www.w3.org/1999/xlink" width="25px" height="25px" xmlns="http://www.w3.org/2000/svg">
  <g transform="matrix(1 0 0 1 -134 -572 )">
    <path d="M 12.5 11.765625  C 12.8104967948718 11.765625  13.1310096153846 11.8229166666667  13.4615384615385 11.9375  L 13.4615384615385 21  C 13.4615384615385 22.0833333333333  13.0809294871795 23.0208333333333  12.3197115384615 23.8125  C 11.5584935897436 24.6041666666667  10.6570512820513 25  9.61538461538462 25  C 8.57371794871795 25  7.67227564102564 24.6041666666667  6.91105769230769 23.8125  C 6.14983974358974 23.0208333333333  5.76923076923077 22.0833333333333  5.76923076923077 21  C 5.76923076923077 20.7291666666667  5.86438301282051 20.4947916666667  6.0546875 20.296875  C 6.24499198717949 20.0989583333333  6.47035256410256 20  6.73076923076923 20  C 6.9911858974359 20  7.21654647435897 20.0989583333333  7.40685096153846 20.296875  C 7.59715544871795 20.4947916666667  7.69230769230769 20.7291666666667  7.69230769230769 21  C 7.69230769230769 21.5208333333333  7.88762019230769 21.984375  8.27824519230769 22.390625  C 8.66887019230769 22.796875  9.11458333333333 23  9.61538461538462 23  C 10.1161858974359 23  10.5618990384615 22.796875  10.9525240384615 22.390625  C 11.3431490384615 21.984375  11.5384615384615 21.5208333333333  11.5384615384615 21  L 11.5384615384615 11.9375  C 11.8689903846154 11.8229166666667  12.1895032051282 11.765625  12.5 11.765625  Z M 24.9849759615385 12.25  C 24.9949919871795 12.2708333333333  25 12.3072916666667  25 12.359375  C 25 12.4947916666667  24.9524238782051 12.6119791666667  24.8572716346154 12.7109375  C 24.7621193910256 12.8098958333333  24.6494391025641 12.859375  24.5192307692308 12.859375  C 24.4090544871795 12.859375  24.2938701923077 12.8072916666667  24.1736778846154 12.703125  C 23.6828926282051 12.2239583333333  23.2171474358974 11.8645833333333  22.7764423076923 11.625  C 22.3357371794872 11.3854166666667  21.8249198717949 11.265625  21.2439903846154 11.265625  C 20.5629006410256 11.265625  19.921875 11.4583333333333  19.3209134615385 11.84375  C 18.7199519230769 12.2291666666667  18.2041266025641 12.734375  17.7734375 13.359375  C 17.7033253205128 13.4635416666667  17.6156850961538 13.609375  17.5105168269231 13.796875  C 17.4053485576923 13.984375  17.3327323717949 14.109375  17.2926682692308 14.171875  C 17.1824919871795 14.3489583333333  17.0422676282051 14.4375  16.8719951923077 14.4375  C 16.6917067307692 14.4375  16.5464743589744 14.3489583333333  16.4362980769231 14.171875  C 16.396233974359 14.109375  16.3236177884615 13.984375  16.2184495192308 13.796875  C 16.11328125 13.609375  16.025641025641 13.4635416666667  15.9555288461538 13.359375  C 15.5248397435897 12.734375  15.0115184294872 12.2291666666667  14.4155649038462 11.84375  C 13.8196113782051 11.4583333333333  13.1810897435897 11.265625  12.5 11.265625  C 11.8189102564103 11.265625  11.1803886217949 11.4583333333333  10.5844350961538 11.84375  C 9.98848157051282 12.2291666666667  9.47516025641026 12.734375  9.04447115384615 13.359375  C 8.97435897435897 13.4635416666667  8.88671875 13.609375  8.78155048076923 13.796875  C 8.67638221153846 13.984375  8.60376602564103 14.109375  8.56370192307692 14.171875  C 8.45352564102564 14.3489583333333  8.30829326923077 14.4375  8.12800480769231 14.4375  C 7.95773237179487 14.4375  7.81750801282051 14.3489583333333  7.70733173076923 14.171875  C 7.66726762820513 14.109375  7.59465144230769 13.984375  7.48948317307692 13.796875  C 7.38431490384615 13.609375  7.29667467948718 13.4635416666667  7.2265625 13.359375  C 6.7958733974359 12.734375  6.28004807692308 12.2291666666667  5.67908653846154 11.84375  C 5.078125 11.4583333333333  4.43709935897436 11.265625  3.75600961538462 11.265625  C 3.17508012820513 11.265625  2.66426282051282 11.3854166666667  2.22355769230769 11.625  C 1.78285256410256 11.8645833333333  1.31710737179487 12.2239583333333  0.826322115384615 12.703125  C 0.706129807692308 12.8072916666667  0.590945512820513 12.859375  0.480769230769231 12.859375  C 0.350560897435897 12.859375  0.237880608974359 12.8098958333333  0.142728365384615 12.7109375  C 0.0475761217948718 12.6119791666667  0 12.4947916666667  0 12.359375  C 0 12.3072916666667  0.00500801282051282 12.2708333333333  0.0150240384615385 12.25  C 0.465745192307692 10.34375  1.32962740384615 8.6796875  2.60667067307692 7.2578125  C 3.88371394230769 5.8359375  5.37610176282051 4.77083333333333  7.08383413461538 4.0625  C 8.79156650641026 3.35416666666666  10.5969551282051 3  12.5 3  C 13.9022435897436 3  15.2769431089744 3.20833333333333  16.6240985576923 3.625  C 17.9712540064103 4.04166666666667  19.2057291666667 4.6328125  20.3275240384615 5.3984375  C 21.4493189102564 6.1640625  22.4233774038462 7.13802083333333  23.2496995192308 8.3203125  C 24.0760216346154 9.50260416666667  24.6544471153846 10.8125  24.9849759615385 12.25  Z M 13.1760817307692 0.296874999999999  C 13.3663862179487 0.494791666666664  13.4615384615385 0.729166666666664  13.4615384615385 1  L 13.4615384615385 2.53125  C 13.0408653846154 2.51041666666667  12.7203525641026 2.5  12.5 2.5  C 12.2796474358974 2.5  11.9591346153846 2.51041666666667  11.5384615384615 2.53125  L 11.5384615384615 1  C 11.5384615384615 0.729166666666664  11.6336137820513 0.494791666666664  11.8239182692308 0.296874999999999  C 12.0142227564103 0.0989583333333321  12.2395833333333 0  12.5 0  C 12.7604166666667 0  12.9857772435897 0.0989583333333321  13.1760817307692 0.296874999999999  Z " fill-rule="nonzero" fill="#8e8e8e" stroke="none" transform="matrix(1 0 0 1 134 572 )" />
  </g>
</svg>