<?xml version="1.0" encoding="utf-8"?>
<svg version="1.1" xmlns:xlink="http://www.w3.org/1999/xlink" width="26px" height="16px" xmlns="http://www.w3.org/2000/svg">
  <g transform="matrix(1 0 0 1 -310 -307 )">
    <path d="M 19.3041294642857 12.5347222222222  C 21.2434895833333 11.4097222222222  22.8563988095238 9.89814814814815  24.1428571428571 8  C 22.672619047619 5.81481481481481  20.8299851190476 4.18055555555556  18.6149553571429 3.09722222222222  C 19.2049851190476 4.06018518518518  19.5 5.10185185185185  19.5 6.22222222222222  C 19.5 7.93518518518518  18.864025297619 9.40046296296296  17.5920758928571 10.6180555555556  C 16.3201264880952 11.8356481481481  14.7894345238095 12.4444444444444  13 12.4444444444444  C 11.2105654761905 12.4444444444444  9.67987351190476 11.8356481481481  8.40792410714286 10.6180555555556  C 7.13597470238095 9.40046296296296  6.5 7.93518518518518  6.5 6.22222222222222  C 6.5 5.10185185185185  6.79501488095238 4.06018518518518  7.38504464285714 3.09722222222222  C 5.17001488095238 4.18055555555556  3.32738095238095 5.81481481481481  1.85714285714286 8  C 3.14360119047619 9.89814814814815  4.75651041666667 11.4097222222222  6.69587053571429 12.5347222222222  C 8.63523065476191 13.6597222222222  10.7366071428571 14.2222222222222  13 14.2222222222222  C 15.2633928571429 14.2222222222222  17.3647693452381 13.6597222222222  19.3041294642857 12.5347222222222  Z M 13.4933035714286 3.13888888888889  C 13.6287202380952 3.00925925925926  13.6964285714286 2.85185185185185  13.6964285714286 2.66666666666667  C 13.6964285714286 2.48148148148148  13.6287202380952 2.32407407407407  13.4933035714286 2.19444444444444  C 13.3578869047619 2.06481481481481  13.1934523809524 2  13 2  C 11.7909226190476 2  10.7535342261905 2.41435185185185  9.88783482142857 3.24305555555556  C 9.02213541666667 4.07175925925926  8.58928571428571 5.06481481481481  8.58928571428571 6.22222222222222  C 8.58928571428571 6.40740740740741  8.65699404761905 6.56481481481481  8.79241071428571 6.69444444444444  C 8.92782738095238 6.82407407407407  9.09226190476191 6.88888888888889  9.28571428571429 6.88888888888889  C 9.47916666666667 6.88888888888889  9.64360119047619 6.82407407407407  9.77901785714286 6.69444444444444  C 9.91443452380952 6.56481481481481  9.98214285714286 6.40740740740741  9.98214285714286 6.22222222222222  C 9.98214285714286 5.42592592592593  10.2771577380952 4.74537037037037  10.8671875 4.18055555555556  C 11.4572172619048 3.61574074074074  12.1681547619048 3.33333333333333  13 3.33333333333333  C 13.1934523809524 3.33333333333333  13.3578869047619 3.26851851851852  13.4933035714286 3.13888888888889  Z M 25.7098214285714 7.04166666666667  C 25.9032738095238 7.36574074074074  26 7.68518518518518  26 8  C 26 8.31481481481481  25.9032738095238 8.63425925925926  25.7098214285714 8.95833333333333  C 24.3556547619048 11.087962962963  22.5347842261905 12.7939814814815  20.2472098214286 14.0763888888889  C 17.9596354166667 15.3587962962963  15.5438988095238 16  13 16  C 10.4561011904762 16  8.04036458333333 15.3564814814815  5.75279017857143 14.0694444444444  C 3.46521577380952 12.7824074074074  1.64434523809524 11.0787037037037  0.290178571428571 8.95833333333333  C 0.0967261904761905 8.63425925925926  0 8.31481481481481  0 8  C 0 7.68518518518518  0.0967261904761905 7.36574074074074  0.290178571428571 7.04166666666667  C 1.64434523809524 4.9212962962963  3.46521577380952 3.21759259259259  5.75279017857143 1.93055555555556  C 8.04036458333333 0.643518518518517  10.4561011904762 0  13 0  C 15.5438988095238 0  17.9596354166667 0.643518518518517  20.2472098214286 1.93055555555556  C 22.5347842261905 3.21759259259259  24.3556547619048 4.9212962962963  25.7098214285714 7.04166666666667  Z " fill-rule="nonzero" fill="#000000" stroke="none" transform="matrix(1 0 0 1 310 307 )" />
  </g>
</svg>