<?xml version="1.0" encoding="utf-8"?>
<svg version="1.1" xmlns:xlink="http://www.w3.org/1999/xlink" width="21px" height="19px" xmlns="http://www.w3.org/2000/svg">
  <g transform="matrix(1 0 0 1 -455 -306 )">
    <path d="M 20.37890625 8.585625  C 20.79296875 9.64645833333333  21 10.9645833333333  21 12.54  C 21 13.8541666666667  20.50390625 15.639375  19.51171875 17.895625  C 19.48828125 17.9510416666667  19.447265625 18.0460416666667  19.388671875 18.180625  C 19.330078125 18.3152083333333  19.27734375 18.4339583333333  19.23046875 18.536875  C 19.18359375 18.6397916666667  19.1328125 18.726875  19.078125 18.798125  C 18.984375 18.9327083333333  18.875 19  18.75 19  C 18.6328125 19  18.541015625 18.9604166666667  18.474609375 18.88125  C 18.408203125 18.8020833333333  18.375 18.703125  18.375 18.584375  C 18.375 18.513125  18.384765625 18.4082291666667  18.404296875 18.2696875  C 18.423828125 18.1311458333333  18.43359375 18.038125  18.43359375 17.990625  C 18.47265625 17.4522916666667  18.4921875 16.9654166666667  18.4921875 16.53  C 18.4921875 15.7304166666667  18.423828125 15.0139583333333  18.287109375 14.380625  C 18.150390625 13.7472916666667  17.9609375 13.1990625  17.71875 12.7359375  C 17.4765625 12.2728125  17.1640625 11.8730208333333  16.78125 11.5365625  C 16.3984375 11.2001041666667  15.986328125 10.925  15.544921875 10.71125  C 15.103515625 10.4975  14.583984375 10.3292708333333  13.986328125 10.2065625  C 13.388671875 10.0838541666667  12.787109375 9.99875  12.181640625 9.95125  C 11.576171875 9.90375  10.890625 9.88  10.125 9.88  L 7.5 9.88  L 7.5 12.92  C 7.5 13.1258333333333  7.42578125 13.3039583333333  7.27734375 13.454375  C 7.12890625 13.6047916666667  6.953125 13.68  6.75 13.68  C 6.546875 13.68  6.37109375 13.6047916666667  6.22265625 13.454375  L 0.22265625 7.374375  C 0.07421875 7.22395833333333  0 7.04583333333333  0 6.84  C 0 6.63416666666667  0.07421875 6.45604166666667  0.22265625 6.305625  L 6.22265625 0.225624999999999  C 6.37109375 0.0752083333333324  6.546875 0  6.75 0  C 6.953125 0  7.12890625 0.0752083333333324  7.27734375 0.225624999999999  C 7.42578125 0.376041666666664  7.5 0.554166666666665  7.5 0.760000000000001  L 7.5 3.8  L 10.125 3.8  C 15.6953125 3.8  19.11328125 5.39520833333333  20.37890625 8.585625  Z " fill-rule="nonzero" fill="#000000" stroke="none" transform="matrix(1 0 0 1 455 306 )" />
  </g>
</svg>