<?xml version="1.0" encoding="utf-8"?>
<svg version="1.1" xmlns:xlink="http://www.w3.org/1999/xlink" width="26px" height="15px" xmlns="http://www.w3.org/2000/svg">
  <g transform="matrix(1 0 0 1 -382 -308 )">
    <path d="M 17.2385416666667 14.3098958333333  C 17.3017361111111 14.3967013888889  17.3333333333333 14.4878472222222  17.3333333333333 14.5833333333333  C 17.3333333333333 14.6961805555556  17.2904513888889 14.7938368055556  17.2046875 14.8763020833333  C 17.1189236111111 14.9587673611111  17.0173611111111 15  16.9 15  L 3.9 15  C 3.82777777777778 15  3.76684027777778 14.9913194444444  3.7171875 14.9739583333333  C 3.66753472222222 14.9565972222222  3.62690972222222 14.9262152777778  3.5953125 14.8828125  C 3.56371527777778 14.8394097222222  3.53888888888889 14.8046875  3.52083333333333 14.7786458333333  C 3.50277777777778 14.7526041666667  3.48923611111111 14.7026909722222  3.48020833333333 14.62890625  C 3.47118055555556 14.5551215277778  3.46666666666667 14.5052083333333  3.46666666666667 14.4791666666667  L 3.46666666666667 14.3098958333333  L 3.46666666666667 14.1666666666667  L 3.46666666666667 12.0833333333333  L 3.46666666666667 6.66666666666667  L 0.866666666666667 6.66666666666667  C 0.631944444444445 6.66666666666667  0.428819444444444 6.58420138888889  0.257291666666667 6.41927083333333  C 0.0857638888888889 6.25434027777778  0 6.05902777777778  0 5.83333333333333  C 0 5.625  0.0677083333333333 5.44704861111111  0.203125 5.29947916666667  L 4.53645833333333 0.299479166666667  C 4.70798611111111 0.108506944444444  4.92916666666667 0.0130208333333337  5.2 0.0130208333333337  C 5.47083333333333 0.0130208333333337  5.69201388888889 0.108506944444444  5.86354166666667 0.299479166666667  L 10.196875 5.29947916666667  C 10.3322916666667 5.44704861111111  10.4 5.625  10.4 5.83333333333333  C 10.4 6.05902777777778  10.3142361111111 6.25434027777778  10.1427083333333 6.41927083333333  C 9.97118055555556 6.58420138888889  9.76805555555556 6.66666666666667  9.53333333333333 6.66666666666667  L 6.93333333333333 6.66666666666667  L 6.93333333333333 11.6666666666667  L 14.7333333333333 11.6666666666667  C 14.8777777777778 11.6666666666667  14.990625 11.7144097222222  15.071875 11.8098958333333  L 17.2385416666667 14.3098958333333  Z M 25.7427083333333 8.58072916666667  C 25.9142361111111 8.74565972222222  26 8.94097222222222  26 9.16666666666667  C 26 9.375  25.9322916666667 9.55295138888889  25.796875 9.70052083333333  L 21.4635416666667 14.7005208333333  C 21.2829861111111 14.9001736111111  21.0618055555556 15  20.8 15  C 20.5381944444444 15  20.3170138888889 14.9001736111111  20.1364583333333 14.7005208333333  L 15.803125 9.70052083333333  C 15.6677083333333 9.55295138888889  15.6 9.375  15.6 9.16666666666667  C 15.6 8.94097222222222  15.6857638888889 8.74565972222222  15.8572916666667 8.58072916666667  C 16.0288194444444 8.41579861111111  16.2319444444444 8.33333333333333  16.4666666666667 8.33333333333333  L 19.0666666666667 8.33333333333333  L 19.0666666666667 3.33333333333333  L 11.2666666666667 3.33333333333333  C 11.1222222222222 3.33333333333333  11.009375 3.28125  10.928125 3.17708333333333  L 8.76145833333333 0.677083333333333  C 8.69826388888889 0.598958333333334  8.66666666666667 0.512152777777777  8.66666666666667 0.416666666666667  C 8.66666666666667 0.303819444444443  8.70954861111111 0.206163194444444  8.7953125 0.123697916666667  C 8.88107638888889 0.0412326388888867  8.98263888888889 0  9.1 0  L 22.1 0  C 22.1722222222222 0  22.2331597222222 0.00868055555555414  22.2828125 0.0260416666666674  C 22.3324652777778 0.0434027777777773  22.3730902777778 0.073784722222221  22.4046875 0.1171875  C 22.4362847222222 0.160590277777777  22.4611111111111 0.195312500000001  22.4791666666667 0.221354166666666  C 22.4972222222222 0.247395833333334  22.5107638888889 0.297309027777776  22.5197916666667 0.371093750000001  C 22.5288194444444 0.44487847222222  22.5333333333333 0.494791666666667  22.5333333333333 0.520833333333333  L 22.5333333333333 0.690104166666666  L 22.5333333333333 0.833333333333334  L 22.5333333333333 2.91666666666667  L 22.5333333333333 8.33333333333333  L 25.1333333333333 8.33333333333333  C 25.3680555555556 8.33333333333333  25.5711805555556 8.41579861111111  25.7427083333333 8.58072916666667  Z " fill-rule="nonzero" fill="#000000" stroke="none" transform="matrix(1 0 0 1 382 308 )" />
  </g>
</svg>