<?xml version="1.0" encoding="utf-8"?>
<svg version="1.1" xmlns:xlink="http://www.w3.org/1999/xlink" width="75px" height="59px" xmlns="http://www.w3.org/2000/svg">
  <g transform="matrix(1 0 0 1 -440 -390 )">
    <path d="M 440 390  L 515 390  L 515 449  L 440 449  L 440 390  " fill-rule="nonzero" fill="#cccccc" stroke="none" />
    <path d="M 444 394  L 511 394  L 511 445  L 444 445  L 444 394  " fill-rule="nonzero" fill="#ffffff" stroke="none" />
    <path d="M 483.425 407.7  C 480.947 407.7  479 405.753  479 403.275  C 479 400.797  480.947 398.85  483.425 398.85  C 485.903 398.85  487.85 400.797  487.85 403.275  C 487.85 405.753  485.903 407.7  483.425 407.7  " fill-rule="nonzero" fill="#cccccc" stroke="none" />
    <path d="M 446 444  L 446 417.6  L 462 405.6  L 484.4 421.344  L 497.2 412.8  L 510 421.344  L 510 444  L 446 444  " fill-rule="nonzero" fill="#169bd5" stroke="none" />
  </g>
</svg>